  0
SECTION
  2
HEADER
  9
$ACADVER
  1
AC1009
  9
$EXTMIN
 10
0.0
 20
0.0
 30
0.0
  9
$EXTMAX
 10
1000.0
 20
1000.0
 30
0.0
  9
$FILLMODE
 70
 0
  9
$SPLFRAME
 70
 1
  0
ENDSEC
  0
SECTION
  2
TABLES
  0
TABLE
  2
LAYER
 70
1
  0
LAYER
  2
0
 70
     0
 62
     7
  6
CONTINUOUS
  0
ENDTAB
  0
ENDSEC
  0
SECTION
  2
ENTITIES
  0
LINE
  8
0
 62
     0
 10
0.0950846
 20
100.446
 30
0.0
 11
266.795
 21
100.446
 31
0.0
  0
LINE
  8
0
 62
     0
 10
266.795
 20
100.446
 30
0.0
 11
266.795
 21
0.434082
 31
0.0
  0
LINE
  8
0
 62
     0
 10
266.795
 20
0.434082
 30
0.0
 11
0.0950846
 21
0.434082
 31
0.0
  0
LINE
  8
0
 62
     0
 10
0.0950846
 20
0.434082
 30
0.0
 11
0.0950846
 21
100.446
 31
0.0
  0
LINE
  8
0
 62
     0
 10
124.062
 20
16.9595
 30
0.0
 11
124.062
 21
15.9604
 31
0.0
  0
LINE
  8
0
 62
     0
 10
124.062
 20
15.9604
 30
0.0
 11
123.263
 21
15.9604
 31
0.0
  0
LINE
  8
0
 62
     0
 10
123.263
 20
15.9604
 30
0.0
 11
123.263
 21
12.8598
 31
0.0
  0
LINE
  8
0
 62
     0
 10
123.263
 20
12.8598
 30
0.0
 11
124.062
 21
12.8598
 31
0.0
  0
LINE
  8
0
 62
     0
 10
124.062
 20
12.8598
 30
0.0
 11
124.062
 21
12.2604
 31
0.0
  0
LINE
  8
0
 62
     0
 10
124.062
 20
12.2604
 30
0.0
 11
84.4381
 21
12.2604
 31
0.0
  0
LINE
  8
0
 62
     0
 10
84.4381
 20
12.2604
 30
0.0
 11
84.4381
 21
15.4905
 31
0.0
  0
LINE
  8
0
 62
     0
 10
84.4381
 20
15.4905
 30
0.0
 11
82.7126
 21
15.4905
 31
0.0
  0
LINE
  8
0
 62
     0
 10
82.7126
 20
15.4905
 30
0.0
 11
82.7126
 21
16.4097
 31
0.0
  0
LINE
  8
0
 62
     0
 10
82.7126
 20
16.4097
 30
0.0
 11
79.412
 21
16.4097
 31
0.0
  0
LINE
  8
0
 62
     0
 10
79.412
 20
16.4097
 30
0.0
 11
79.412
 21
15.4905
 31
0.0
  0
LINE
  8
0
 62
     0
 10
79.412
 20
15.4905
 30
0.0
 11
77.687
 21
15.4905
 31
0.0
  0
LINE
  8
0
 62
     0
 10
77.687
 20
15.4905
 30
0.0
 11
77.687
 21
12.2604
 31
0.0
  0
LINE
  8
0
 62
     0
 10
77.687
 20
12.2604
 30
0.0
 11
76.8629
 21
12.2604
 31
0.0
  0
LINE
  8
0
 62
     0
 10
76.8629
 20
12.2604
 30
0.0
 11
76.8629
 21
9.46023
 31
0.0
  0
LINE
  8
0
 62
     0
 10
76.8629
 20
9.46023
 30
0.0
 11
77.687
 21
9.46023
 31
0.0
  0
LINE
  8
0
 62
     0
 10
77.687
 20
9.46023
 30
0.0
 11
77.687
 21
3.19016
 31
0.0
  0
LINE
  8
0
 62
     0
 10
77.687
 20
3.19016
 30
0.0
 11
79.412
 21
3.19016
 31
0.0
  0
LINE
  8
0
 62
     0
 10
79.412
 20
3.19016
 30
0.0
 11
79.412
 21
2.21037
 31
0.0
  0
LINE
  8
0
 62
     0
 10
79.412
 20
2.21037
 30
0.0
 11
82.7126
 21
2.21037
 31
0.0
  0
LINE
  8
0
 62
     0
 10
82.7126
 20
2.21037
 30
0.0
 11
82.7126
 21
3.19016
 31
0.0
  0
LINE
  8
0
 62
     0
 10
82.7126
 20
3.19016
 30
0.0
 11
84.4381
 21
3.19016
 31
0.0
  0
LINE
  8
0
 62
     0
 10
84.4381
 20
3.19016
 30
0.0
 11
84.4381
 21
7.6605
 31
0.0
  0
LINE
  8
0
 62
     0
 10
84.4381
 20
7.6605
 30
0.0
 11
124.062
 21
7.6605
 31
0.0
  0
LINE
  8
0
 62
     0
 10
124.062
 20
7.6605
 30
0.0
 11
124.062
 21
7.05968
 31
0.0
  0
LINE
  8
0
 62
     0
 10
124.062
 20
7.05968
 30
0.0
 11
123.263
 21
7.05968
 31
0.0
  0
LINE
  8
0
 62
     0
 10
123.263
 20
7.05968
 30
0.0
 11
123.263
 21
3.96049
 31
0.0
  0
LINE
  8
0
 62
     0
 10
123.263
 20
3.96049
 30
0.0
 11
124.062
 21
3.96049
 31
0.0
  0
LINE
  8
0
 62
     0
 10
124.062
 20
3.96049
 30
0.0
 11
124.062
 21
2.96003
 31
0.0
  0
LINE
  8
0
 62
     0
 10
124.062
 20
2.96003
 30
0.0
 11
138.063
 21
2.96003
 31
0.0
  0
LINE
  8
0
 62
     0
 10
138.063
 20
2.96003
 30
0.0
 11
138.063
 21
3.96049
 31
0.0
  0
LINE
  8
0
 62
     0
 10
138.063
 20
3.96049
 30
0.0
 11
138.862
 21
3.96049
 31
0.0
  0
LINE
  8
0
 62
     0
 10
138.862
 20
3.96049
 30
0.0
 11
138.862
 21
7.05968
 31
0.0
  0
LINE
  8
0
 62
     0
 10
138.862
 20
7.05968
 30
0.0
 11
138.063
 21
7.05968
 31
0.0
  0
LINE
  8
0
 62
     0
 10
138.063
 20
7.05968
 30
0.0
 11
138.063
 21
7.6605
 31
0.0
  0
LINE
  8
0
 62
     0
 10
138.063
 20
7.6605
 30
0.0
 11
177.687
 21
7.6605
 31
0.0
  0
LINE
  8
0
 62
     0
 10
177.687
 20
7.6605
 30
0.0
 11
177.687
 21
3.19016
 31
0.0
  0
LINE
  8
0
 62
     0
 10
177.687
 20
3.19016
 30
0.0
 11
179.412
 21
3.19016
 31
0.0
  0
LINE
  8
0
 62
     0
 10
179.412
 20
3.19016
 30
0.0
 11
179.412
 21
2.21037
 31
0.0
  0
LINE
  8
0
 62
     0
 10
179.412
 20
2.21037
 30
0.0
 11
182.713
 21
2.21037
 31
0.0
  0
LINE
  8
0
 62
     0
 10
182.713
 20
2.21037
 30
0.0
 11
182.713
 21
3.19016
 31
0.0
  0
LINE
  8
0
 62
     0
 10
182.713
 20
3.19016
 30
0.0
 11
184.438
 21
3.19016
 31
0.0
  0
LINE
  8
0
 62
     0
 10
184.438
 20
3.19016
 30
0.0
 11
184.438
 21
9.46023
 31
0.0
  0
LINE
  8
0
 62
     0
 10
184.438
 20
9.46023
 30
0.0
 11
185.262
 21
9.46023
 31
0.0
  0
LINE
  8
0
 62
     0
 10
185.262
 20
9.46023
 30
0.0
 11
185.262
 21
12.2604
 31
0.0
  0
LINE
  8
0
 62
     0
 10
185.262
 20
12.2604
 30
0.0
 11
184.438
 21
12.2604
 31
0.0
  0
LINE
  8
0
 62
     0
 10
184.438
 20
12.2604
 30
0.0
 11
184.438
 21
15.4905
 31
0.0
  0
LINE
  8
0
 62
     0
 10
184.438
 20
15.4905
 30
0.0
 11
182.713
 21
15.4905
 31
0.0
  0
LINE
  8
0
 62
     0
 10
182.713
 20
15.4905
 30
0.0
 11
182.713
 21
16.4097
 31
0.0
  0
LINE
  8
0
 62
     0
 10
182.713
 20
16.4097
 30
0.0
 11
179.412
 21
16.4097
 31
0.0
  0
LINE
  8
0
 62
     0
 10
179.412
 20
16.4097
 30
0.0
 11
179.412
 21
15.4905
 31
0.0
  0
LINE
  8
0
 62
     0
 10
179.412
 20
15.4905
 30
0.0
 11
177.687
 21
15.4905
 31
0.0
  0
LINE
  8
0
 62
     0
 10
177.687
 20
15.4905
 30
0.0
 11
177.687
 21
12.2604
 31
0.0
  0
LINE
  8
0
 62
     0
 10
177.687
 20
12.2604
 30
0.0
 11
138.063
 21
12.2604
 31
0.0
  0
LINE
  8
0
 62
     0
 10
138.063
 20
12.2604
 30
0.0
 11
138.063
 21
12.8598
 31
0.0
  0
LINE
  8
0
 62
     0
 10
138.063
 20
12.8598
 30
0.0
 11
138.862
 21
12.8598
 31
0.0
  0
LINE
  8
0
 62
     0
 10
138.862
 20
12.8598
 30
0.0
 11
138.862
 21
15.9604
 31
0.0
  0
LINE
  8
0
 62
     0
 10
138.862
 20
15.9604
 30
0.0
 11
138.063
 21
15.9604
 31
0.0
  0
LINE
  8
0
 62
     0
 10
138.063
 20
15.9604
 30
0.0
 11
138.063
 21
16.9595
 31
0.0
  0
LINE
  8
0
 62
     0
 10
138.063
 20
16.9595
 30
0.0
 11
124.062
 21
16.9595
 31
0.0
  0
LINE
  8
0
 62
     0
 10
245.507
 20
16.9595
 30
0.0
 11
245.507
 21
15.9604
 31
0.0
  0
LINE
  8
0
 62
     0
 10
245.507
 20
15.9604
 30
0.0
 11
244.706
 21
15.9604
 31
0.0
  0
LINE
  8
0
 62
     0
 10
244.706
 20
15.9604
 30
0.0
 11
244.706
 21
12.8598
 31
0.0
  0
LINE
  8
0
 62
     0
 10
244.706
 20
12.8598
 30
0.0
 11
245.507
 21
12.8598
 31
0.0
  0
LINE
  8
0
 62
     0
 10
245.507
 20
12.8598
 30
0.0
 11
245.507
 21
7.05968
 31
0.0
  0
LINE
  8
0
 62
     0
 10
245.507
 20
7.05968
 30
0.0
 11
244.706
 21
7.05968
 31
0.0
  0
LINE
  8
0
 62
     0
 10
244.706
 20
7.05968
 30
0.0
 11
244.706
 21
3.96049
 31
0.0
  0
LINE
  8
0
 62
     0
 10
244.706
 20
3.96049
 30
0.0
 11
245.507
 21
3.96049
 31
0.0
  0
LINE
  8
0
 62
     0
 10
245.507
 20
3.96049
 30
0.0
 11
245.507
 21
2.96003
 31
0.0
  0
LINE
  8
0
 62
     0
 10
245.507
 20
2.96003
 30
0.0
 11
259.507
 21
2.96003
 31
0.0
  0
LINE
  8
0
 62
     0
 10
259.507
 20
2.96003
 30
0.0
 11
259.507
 21
3.96049
 31
0.0
  0
LINE
  8
0
 62
     0
 10
259.507
 20
3.96049
 30
0.0
 11
260.306
 21
3.96049
 31
0.0
  0
LINE
  8
0
 62
     0
 10
260.306
 20
3.96049
 30
0.0
 11
260.306
 21
7.05968
 31
0.0
  0
LINE
  8
0
 62
     0
 10
260.306
 20
7.05968
 30
0.0
 11
259.507
 21
7.05968
 31
0.0
  0
LINE
  8
0
 62
     0
 10
259.507
 20
7.05968
 30
0.0
 11
259.507
 21
12.8598
 31
0.0
  0
LINE
  8
0
 62
     0
 10
259.507
 20
12.8598
 30
0.0
 11
260.306
 21
12.8598
 31
0.0
  0
LINE
  8
0
 62
     0
 10
260.306
 20
12.8598
 30
0.0
 11
260.306
 21
15.9604
 31
0.0
  0
LINE
  8
0
 62
     0
 10
260.306
 20
15.9604
 30
0.0
 11
259.507
 21
15.9604
 31
0.0
  0
LINE
  8
0
 62
     0
 10
259.507
 20
15.9604
 30
0.0
 11
259.507
 21
16.9595
 31
0.0
  0
LINE
  8
0
 62
     0
 10
259.507
 20
16.9595
 30
0.0
 11
245.507
 21
16.9595
 31
0.0
  0
LINE
  8
0
 62
     0
 10
219.312
 20
16.9595
 30
0.0
 11
219.312
 21
15.9604
 31
0.0
  0
LINE
  8
0
 62
     0
 10
219.312
 20
15.9604
 30
0.0
 11
218.513
 21
15.9604
 31
0.0
  0
LINE
  8
0
 62
     0
 10
218.513
 20
15.9604
 30
0.0
 11
218.513
 21
12.8598
 31
0.0
  0
LINE
  8
0
 62
     0
 10
218.513
 20
12.8598
 30
0.0
 11
219.312
 21
12.8598
 31
0.0
  0
LINE
  8
0
 62
     0
 10
219.312
 20
12.8598
 30
0.0
 11
219.312
 21
7.05968
 31
0.0
  0
LINE
  8
0
 62
     0
 10
219.312
 20
7.05968
 30
0.0
 11
218.513
 21
7.05968
 31
0.0
  0
LINE
  8
0
 62
     0
 10
218.513
 20
7.05968
 30
0.0
 11
218.513
 21
3.96049
 31
0.0
  0
LINE
  8
0
 62
     0
 10
218.513
 20
3.96049
 30
0.0
 11
219.312
 21
3.96049
 31
0.0
  0
LINE
  8
0
 62
     0
 10
219.312
 20
3.96049
 30
0.0
 11
219.312
 21
2.96003
 31
0.0
  0
LINE
  8
0
 62
     0
 10
219.312
 20
2.96003
 30
0.0
 11
233.313
 21
2.96003
 31
0.0
  0
LINE
  8
0
 62
     0
 10
233.313
 20
2.96003
 30
0.0
 11
233.313
 21
3.96049
 31
0.0
  0
LINE
  8
0
 62
     0
 10
233.313
 20
3.96049
 30
0.0
 11
234.112
 21
3.96049
 31
0.0
  0
LINE
  8
0
 62
     0
 10
234.112
 20
3.96049
 30
0.0
 11
234.112
 21
7.05968
 31
0.0
  0
LINE
  8
0
 62
     0
 10
234.112
 20
7.05968
 30
0.0
 11
233.313
 21
7.05968
 31
0.0
  0
LINE
  8
0
 62
     0
 10
233.313
 20
7.05968
 30
0.0
 11
233.313
 21
12.8598
 31
0.0
  0
LINE
  8
0
 62
     0
 10
233.313
 20
12.8598
 30
0.0
 11
234.112
 21
12.8598
 31
0.0
  0
LINE
  8
0
 62
     0
 10
234.112
 20
12.8598
 30
0.0
 11
234.112
 21
15.9604
 31
0.0
  0
LINE
  8
0
 62
     0
 10
234.112
 20
15.9604
 30
0.0
 11
233.313
 21
15.9604
 31
0.0
  0
LINE
  8
0
 62
     0
 10
233.313
 20
15.9604
 30
0.0
 11
233.313
 21
16.9595
 31
0.0
  0
LINE
  8
0
 62
     0
 10
233.313
 20
16.9595
 30
0.0
 11
219.312
 21
16.9595
 31
0.0
  0
LINE
  8
0
 62
     0
 10
195.501
 20
16.9595
 30
0.0
 11
195.501
 21
15.9604
 31
0.0
  0
LINE
  8
0
 62
     0
 10
195.501
 20
15.9604
 30
0.0
 11
194.7
 21
15.9604
 31
0.0
  0
LINE
  8
0
 62
     0
 10
194.7
 20
15.9604
 30
0.0
 11
194.7
 21
12.8598
 31
0.0
  0
LINE
  8
0
 62
     0
 10
194.7
 20
12.8598
 30
0.0
 11
195.501
 21
12.8598
 31
0.0
  0
LINE
  8
0
 62
     0
 10
195.501
 20
12.8598
 30
0.0
 11
195.501
 21
7.05968
 31
0.0
  0
LINE
  8
0
 62
     0
 10
195.501
 20
7.05968
 30
0.0
 11
194.7
 21
7.05968
 31
0.0
  0
LINE
  8
0
 62
     0
 10
194.7
 20
7.05968
 30
0.0
 11
194.7
 21
3.96049
 31
0.0
  0
LINE
  8
0
 62
     0
 10
194.7
 20
3.96049
 30
0.0
 11
195.501
 21
3.96049
 31
0.0
  0
LINE
  8
0
 62
     0
 10
195.501
 20
3.96049
 30
0.0
 11
195.501
 21
2.96003
 31
0.0
  0
LINE
  8
0
 62
     0
 10
195.501
 20
2.96003
 30
0.0
 11
209.5
 21
2.96003
 31
0.0
  0
LINE
  8
0
 62
     0
 10
209.5
 20
2.96003
 30
0.0
 11
209.5
 21
3.96049
 31
0.0
  0
LINE
  8
0
 62
     0
 10
209.5
 20
3.96049
 30
0.0
 11
210.301
 21
3.96049
 31
0.0
  0
LINE
  8
0
 62
     0
 10
210.301
 20
3.96049
 30
0.0
 11
210.301
 21
7.05968
 31
0.0
  0
LINE
  8
0
 62
     0
 10
210.301
 20
7.05968
 30
0.0
 11
209.5
 21
7.05968
 31
0.0
  0
LINE
  8
0
 62
     0
 10
209.5
 20
7.05968
 30
0.0
 11
209.5
 21
12.8598
 31
0.0
  0
LINE
  8
0
 62
     0
 10
209.5
 20
12.8598
 30
0.0
 11
210.301
 21
12.8598
 31
0.0
  0
LINE
  8
0
 62
     0
 10
210.301
 20
12.8598
 30
0.0
 11
210.301
 21
15.9604
 31
0.0
  0
LINE
  8
0
 62
     0
 10
210.301
 20
15.9604
 30
0.0
 11
209.5
 21
15.9604
 31
0.0
  0
LINE
  8
0
 62
     0
 10
209.5
 20
15.9604
 30
0.0
 11
209.5
 21
16.9595
 31
0.0
  0
LINE
  8
0
 62
     0
 10
209.5
 20
16.9595
 30
0.0
 11
195.501
 21
16.9595
 31
0.0
  0
LINE
  8
0
 62
     0
 10
52.626
 20
16.9595
 30
0.0
 11
52.626
 21
15.9604
 31
0.0
  0
LINE
  8
0
 62
     0
 10
52.626
 20
15.9604
 30
0.0
 11
51.8252
 21
15.9604
 31
0.0
  0
LINE
  8
0
 62
     0
 10
51.8252
 20
15.9604
 30
0.0
 11
51.8252
 21
12.8598
 31
0.0
  0
LINE
  8
0
 62
     0
 10
51.8252
 20
12.8598
 30
0.0
 11
52.626
 21
12.8598
 31
0.0
  0
LINE
  8
0
 62
     0
 10
52.626
 20
12.8598
 30
0.0
 11
52.626
 21
7.05968
 31
0.0
  0
LINE
  8
0
 62
     0
 10
52.626
 20
7.05968
 30
0.0
 11
51.8252
 21
7.05968
 31
0.0
  0
LINE
  8
0
 62
     0
 10
51.8252
 20
7.05968
 30
0.0
 11
51.8252
 21
3.96049
 31
0.0
  0
LINE
  8
0
 62
     0
 10
51.8252
 20
3.96049
 30
0.0
 11
52.626
 21
3.96049
 31
0.0
  0
LINE
  8
0
 62
     0
 10
52.626
 20
3.96049
 30
0.0
 11
52.626
 21
2.96003
 31
0.0
  0
LINE
  8
0
 62
     0
 10
52.626
 20
2.96003
 30
0.0
 11
66.6253
 21
2.96003
 31
0.0
  0
LINE
  8
0
 62
     0
 10
66.6253
 20
2.96003
 30
0.0
 11
66.6253
 21
3.96049
 31
0.0
  0
LINE
  8
0
 62
     0
 10
66.6253
 20
3.96049
 30
0.0
 11
67.4261
 21
3.96049
 31
0.0
  0
LINE
  8
0
 62
     0
 10
67.4261
 20
3.96049
 30
0.0
 11
67.4261
 21
7.05968
 31
0.0
  0
LINE
  8
0
 62
     0
 10
67.4261
 20
7.05968
 30
0.0
 11
66.6253
 21
7.05968
 31
0.0
  0
LINE
  8
0
 62
     0
 10
66.6253
 20
7.05968
 30
0.0
 11
66.6253
 21
12.8598
 31
0.0
  0
LINE
  8
0
 62
     0
 10
66.6253
 20
12.8598
 30
0.0
 11
67.4261
 21
12.8598
 31
0.0
  0
LINE
  8
0
 62
     0
 10
67.4261
 20
12.8598
 30
0.0
 11
67.4261
 21
15.9604
 31
0.0
  0
LINE
  8
0
 62
     0
 10
67.4261
 20
15.9604
 30
0.0
 11
66.6253
 21
15.9604
 31
0.0
  0
LINE
  8
0
 62
     0
 10
66.6253
 20
15.9604
 30
0.0
 11
66.6253
 21
16.9595
 31
0.0
  0
LINE
  8
0
 62
     0
 10
66.6253
 20
16.9595
 30
0.0
 11
52.626
 21
16.9595
 31
0.0
  0
LINE
  8
0
 62
     0
 10
28.812
 20
16.9595
 30
0.0
 11
28.812
 21
15.9604
 31
0.0
  0
LINE
  8
0
 62
     0
 10
28.812
 20
15.9604
 30
0.0
 11
28.0128
 21
15.9604
 31
0.0
  0
LINE
  8
0
 62
     0
 10
28.0128
 20
15.9604
 30
0.0
 11
28.0128
 21
12.8598
 31
0.0
  0
LINE
  8
0
 62
     0
 10
28.0128
 20
12.8598
 30
0.0
 11
28.812
 21
12.8598
 31
0.0
  0
LINE
  8
0
 62
     0
 10
28.812
 20
12.8598
 30
0.0
 11
28.812
 21
7.05968
 31
0.0
  0
LINE
  8
0
 62
     0
 10
28.812
 20
7.05968
 30
0.0
 11
28.0128
 21
7.05968
 31
0.0
  0
LINE
  8
0
 62
     0
 10
28.0128
 20
7.05968
 30
0.0
 11
28.0128
 21
3.96049
 31
0.0
  0
LINE
  8
0
 62
     0
 10
28.0128
 20
3.96049
 30
0.0
 11
28.812
 21
3.96049
 31
0.0
  0
LINE
  8
0
 62
     0
 10
28.812
 20
3.96049
 30
0.0
 11
28.812
 21
2.96003
 31
0.0
  0
LINE
  8
0
 62
     0
 10
28.812
 20
2.96003
 30
0.0
 11
42.8128
 21
2.96003
 31
0.0
  0
LINE
  8
0
 62
     0
 10
42.8128
 20
2.96003
 30
0.0
 11
42.8128
 21
3.96049
 31
0.0
  0
LINE
  8
0
 62
     0
 10
42.8128
 20
3.96049
 30
0.0
 11
43.6122
 21
3.96049
 31
0.0
  0
LINE
  8
0
 62
     0
 10
43.6122
 20
3.96049
 30
0.0
 11
43.6122
 21
7.05968
 31
0.0
  0
LINE
  8
0
 62
     0
 10
43.6122
 20
7.05968
 30
0.0
 11
42.8128
 21
7.05968
 31
0.0
  0
LINE
  8
0
 62
     0
 10
42.8128
 20
7.05968
 30
0.0
 11
42.8128
 21
12.8598
 31
0.0
  0
LINE
  8
0
 62
     0
 10
42.8128
 20
12.8598
 30
0.0
 11
43.6122
 21
12.8598
 31
0.0
  0
LINE
  8
0
 62
     0
 10
43.6122
 20
12.8598
 30
0.0
 11
43.6122
 21
15.9604
 31
0.0
  0
LINE
  8
0
 62
     0
 10
43.6122
 20
15.9604
 30
0.0
 11
42.8128
 21
15.9604
 31
0.0
  0
LINE
  8
0
 62
     0
 10
42.8128
 20
15.9604
 30
0.0
 11
42.8128
 21
16.9595
 31
0.0
  0
LINE
  8
0
 62
     0
 10
42.8128
 20
16.9595
 30
0.0
 11
28.812
 21
16.9595
 31
0.0
  0
LINE
  8
0
 62
     0
 10
5.00091
 20
16.9595
 30
0.0
 11
5.00091
 21
15.9604
 31
0.0
  0
LINE
  8
0
 62
     0
 10
5.00091
 20
15.9604
 30
0.0
 11
4.20028
 21
15.9604
 31
0.0
  0
LINE
  8
0
 62
     0
 10
4.20028
 20
15.9604
 30
0.0
 11
4.20028
 21
12.8598
 31
0.0
  0
LINE
  8
0
 62
     0
 10
4.20028
 20
12.8598
 30
0.0
 11
5.00091
 21
12.8598
 31
0.0
  0
LINE
  8
0
 62
     0
 10
5.00091
 20
12.8598
 30
0.0
 11
5.00091
 21
7.05968
 31
0.0
  0
LINE
  8
0
 62
     0
 10
5.00091
 20
7.05968
 30
0.0
 11
4.20028
 21
7.05968
 31
0.0
  0
LINE
  8
0
 62
     0
 10
4.20028
 20
7.05968
 30
0.0
 11
4.20028
 21
3.96049
 31
0.0
  0
LINE
  8
0
 62
     0
 10
4.20028
 20
3.96049
 30
0.0
 11
5.00091
 21
3.96049
 31
0.0
  0
LINE
  8
0
 62
     0
 10
5.00091
 20
3.96049
 30
0.0
 11
5.00091
 21
2.96003
 31
0.0
  0
LINE
  8
0
 62
     0
 10
5.00091
 20
2.96003
 30
0.0
 11
19.0004
 21
2.96003
 31
0.0
  0
LINE
  8
0
 62
     0
 10
19.0004
 20
2.96003
 30
0.0
 11
19.0004
 21
3.96049
 31
0.0
  0
LINE
  8
0
 62
     0
 10
19.0004
 20
3.96049
 30
0.0
 11
19.801
 21
3.96049
 31
0.0
  0
LINE
  8
0
 62
     0
 10
19.801
 20
3.96049
 30
0.0
 11
19.801
 21
7.05968
 31
0.0
  0
LINE
  8
0
 62
     0
 10
19.801
 20
7.05968
 30
0.0
 11
19.0004
 21
7.05968
 31
0.0
  0
LINE
  8
0
 62
     0
 10
19.0004
 20
7.05968
 30
0.0
 11
19.0004
 21
12.8598
 31
0.0
  0
LINE
  8
0
 62
     0
 10
19.0004
 20
12.8598
 30
0.0
 11
19.801
 21
12.8598
 31
0.0
  0
LINE
  8
0
 62
     0
 10
19.801
 20
12.8598
 30
0.0
 11
19.801
 21
15.9604
 31
0.0
  0
LINE
  8
0
 62
     0
 10
19.801
 20
15.9604
 30
0.0
 11
19.0004
 21
15.9604
 31
0.0
  0
LINE
  8
0
 62
     0
 10
19.0004
 20
15.9604
 30
0.0
 11
19.0004
 21
16.9595
 31
0.0
  0
LINE
  8
0
 62
     0
 10
19.0004
 20
16.9595
 30
0.0
 11
5.00091
 21
16.9595
 31
0.0
  0
LINE
  8
0
 62
     0
 10
238.362
 20
36.0094
 30
0.0
 11
238.362
 21
35.0104
 31
0.0
  0
LINE
  8
0
 62
     0
 10
238.362
 20
35.0104
 30
0.0
 11
237.563
 21
35.0104
 31
0.0
  0
LINE
  8
0
 62
     0
 10
237.563
 20
35.0104
 30
0.0
 11
237.563
 21
31.9098
 31
0.0
  0
LINE
  8
0
 62
     0
 10
237.563
 20
31.9098
 30
0.0
 11
238.362
 21
31.9098
 31
0.0
  0
LINE
  8
0
 62
     0
 10
238.362
 20
31.9098
 30
0.0
 11
238.362
 21
31.3104
 31
0.0
  0
LINE
  8
0
 62
     0
 10
238.362
 20
31.3104
 30
0.0
 11
236.838
 21
31.3104
 31
0.0
  0
LINE
  8
0
 62
     0
 10
236.838
 20
31.3104
 30
0.0
 11
236.838
 21
34.5405
 31
0.0
  0
LINE
  8
0
 62
     0
 10
236.838
 20
34.5405
 30
0.0
 11
235.113
 21
34.5405
 31
0.0
  0
LINE
  8
0
 62
     0
 10
235.113
 20
34.5405
 30
0.0
 11
235.113
 21
35.4598
 31
0.0
  0
LINE
  8
0
 62
     0
 10
235.113
 20
35.4598
 30
0.0
 11
231.812
 21
35.4598
 31
0.0
  0
LINE
  8
0
 62
     0
 10
231.812
 20
35.4598
 30
0.0
 11
231.812
 21
34.5405
 31
0.0
  0
LINE
  8
0
 62
     0
 10
231.812
 20
34.5405
 30
0.0
 11
230.087
 21
34.5405
 31
0.0
  0
LINE
  8
0
 62
     0
 10
230.087
 20
34.5405
 30
0.0
 11
230.087
 21
31.3104
 31
0.0
  0
LINE
  8
0
 62
     0
 10
230.087
 20
31.3104
 30
0.0
 11
229.263
 21
31.3104
 31
0.0
  0
LINE
  8
0
 62
     0
 10
229.263
 20
31.3104
 30
0.0
 11
229.263
 21
28.5102
 31
0.0
  0
LINE
  8
0
 62
     0
 10
229.263
 20
28.5102
 30
0.0
 11
230.087
 21
28.5102
 31
0.0
  0
LINE
  8
0
 62
     0
 10
230.087
 20
28.5102
 30
0.0
 11
230.087
 21
22.2402
 31
0.0
  0
LINE
  8
0
 62
     0
 10
230.087
 20
22.2402
 30
0.0
 11
231.812
 21
22.2402
 31
0.0
  0
LINE
  8
0
 62
     0
 10
231.812
 20
22.2402
 30
0.0
 11
231.812
 21
21.2604
 31
0.0
  0
LINE
  8
0
 62
     0
 10
231.812
 20
21.2604
 30
0.0
 11
235.113
 21
21.2604
 31
0.0
  0
LINE
  8
0
 62
     0
 10
235.113
 20
21.2604
 30
0.0
 11
235.113
 21
22.2402
 31
0.0
  0
LINE
  8
0
 62
     0
 10
235.113
 20
22.2402
 30
0.0
 11
236.838
 21
22.2402
 31
0.0
  0
LINE
  8
0
 62
     0
 10
236.838
 20
22.2402
 30
0.0
 11
236.838
 21
26.7105
 31
0.0
  0
LINE
  8
0
 62
     0
 10
236.838
 20
26.7105
 30
0.0
 11
238.362
 21
26.7105
 31
0.0
  0
LINE
  8
0
 62
     0
 10
238.362
 20
26.7105
 30
0.0
 11
238.362
 21
26.1097
 31
0.0
  0
LINE
  8
0
 62
     0
 10
238.362
 20
26.1097
 30
0.0
 11
237.563
 21
26.1097
 31
0.0
  0
LINE
  8
0
 62
     0
 10
237.563
 20
26.1097
 30
0.0
 11
237.563
 21
23.0105
 31
0.0
  0
LINE
  8
0
 62
     0
 10
237.563
 20
23.0105
 30
0.0
 11
238.362
 21
23.0105
 31
0.0
  0
LINE
  8
0
 62
     0
 10
238.362
 20
23.0105
 30
0.0
 11
238.362
 21
22.01
 31
0.0
  0
LINE
  8
0
 62
     0
 10
238.362
 20
22.01
 30
0.0
 11
252.361
 21
22.01
 31
0.0
  0
LINE
  8
0
 62
     0
 10
252.361
 20
22.01
 30
0.0
 11
252.361
 21
23.0105
 31
0.0
  0
LINE
  8
0
 62
     0
 10
252.361
 20
23.0105
 30
0.0
 11
253.162
 21
23.0105
 31
0.0
  0
LINE
  8
0
 62
     0
 10
253.162
 20
23.0105
 30
0.0
 11
253.162
 21
26.1097
 31
0.0
  0
LINE
  8
0
 62
     0
 10
253.162
 20
26.1097
 30
0.0
 11
252.361
 21
26.1097
 31
0.0
  0
LINE
  8
0
 62
     0
 10
252.361
 20
26.1097
 30
0.0
 11
252.361
 21
26.7105
 31
0.0
  0
LINE
  8
0
 62
     0
 10
252.361
 20
26.7105
 30
0.0
 11
253.887
 21
26.7105
 31
0.0
  0
LINE
  8
0
 62
     0
 10
253.887
 20
26.7105
 30
0.0
 11
253.887
 21
22.2402
 31
0.0
  0
LINE
  8
0
 62
     0
 10
253.887
 20
22.2402
 30
0.0
 11
255.611
 21
22.2402
 31
0.0
  0
LINE
  8
0
 62
     0
 10
255.611
 20
22.2402
 30
0.0
 11
255.611
 21
21.2604
 31
0.0
  0
LINE
  8
0
 62
     0
 10
255.611
 20
21.2604
 30
0.0
 11
258.913
 21
21.2604
 31
0.0
  0
LINE
  8
0
 62
     0
 10
258.913
 20
21.2604
 30
0.0
 11
258.913
 21
22.2402
 31
0.0
  0
LINE
  8
0
 62
     0
 10
258.913
 20
22.2402
 30
0.0
 11
260.638
 21
22.2402
 31
0.0
  0
LINE
  8
0
 62
     0
 10
260.638
 20
22.2402
 30
0.0
 11
260.638
 21
28.5102
 31
0.0
  0
LINE
  8
0
 62
     0
 10
260.638
 20
28.5102
 30
0.0
 11
261.462
 21
28.5102
 31
0.0
  0
LINE
  8
0
 62
     0
 10
261.462
 20
28.5102
 30
0.0
 11
261.462
 21
31.3104
 31
0.0
  0
LINE
  8
0
 62
     0
 10
261.462
 20
31.3104
 30
0.0
 11
260.638
 21
31.3104
 31
0.0
  0
LINE
  8
0
 62
     0
 10
260.638
 20
31.3104
 30
0.0
 11
260.638
 21
34.5405
 31
0.0
  0
LINE
  8
0
 62
     0
 10
260.638
 20
34.5405
 30
0.0
 11
258.913
 21
34.5405
 31
0.0
  0
LINE
  8
0
 62
     0
 10
258.913
 20
34.5405
 30
0.0
 11
258.913
 21
35.4598
 31
0.0
  0
LINE
  8
0
 62
     0
 10
258.913
 20
35.4598
 30
0.0
 11
255.611
 21
35.4598
 31
0.0
  0
LINE
  8
0
 62
     0
 10
255.611
 20
35.4598
 30
0.0
 11
255.611
 21
34.5405
 31
0.0
  0
LINE
  8
0
 62
     0
 10
255.611
 20
34.5405
 30
0.0
 11
253.887
 21
34.5405
 31
0.0
  0
LINE
  8
0
 62
     0
 10
253.887
 20
34.5405
 30
0.0
 11
253.887
 21
31.3104
 31
0.0
  0
LINE
  8
0
 62
     0
 10
253.887
 20
31.3104
 30
0.0
 11
252.361
 21
31.3104
 31
0.0
  0
LINE
  8
0
 62
     0
 10
252.361
 20
31.3104
 30
0.0
 11
252.361
 21
31.9098
 31
0.0
  0
LINE
  8
0
 62
     0
 10
252.361
 20
31.9098
 30
0.0
 11
253.162
 21
31.9098
 31
0.0
  0
LINE
  8
0
 62
     0
 10
253.162
 20
31.9098
 30
0.0
 11
253.162
 21
35.0104
 31
0.0
  0
LINE
  8
0
 62
     0
 10
253.162
 20
35.0104
 30
0.0
 11
252.361
 21
35.0104
 31
0.0
  0
LINE
  8
0
 62
     0
 10
252.361
 20
35.0104
 30
0.0
 11
252.361
 21
36.0094
 31
0.0
  0
LINE
  8
0
 62
     0
 10
252.361
 20
36.0094
 30
0.0
 11
238.362
 21
36.0094
 31
0.0
  0
LINE
  8
0
 62
     0
 10
207.407
 20
36.0094
 30
0.0
 11
207.407
 21
35.0104
 31
0.0
  0
LINE
  8
0
 62
     0
 10
207.407
 20
35.0104
 30
0.0
 11
206.606
 21
35.0104
 31
0.0
  0
LINE
  8
0
 62
     0
 10
206.606
 20
35.0104
 30
0.0
 11
206.606
 21
31.9098
 31
0.0
  0
LINE
  8
0
 62
     0
 10
206.606
 20
31.9098
 30
0.0
 11
207.407
 21
31.9098
 31
0.0
  0
LINE
  8
0
 62
     0
 10
207.407
 20
31.9098
 30
0.0
 11
207.407
 21
26.1097
 31
0.0
  0
LINE
  8
0
 62
     0
 10
207.407
 20
26.1097
 30
0.0
 11
206.606
 21
26.1097
 31
0.0
  0
LINE
  8
0
 62
     0
 10
206.606
 20
26.1097
 30
0.0
 11
206.606
 21
23.0105
 31
0.0
  0
LINE
  8
0
 62
     0
 10
206.606
 20
23.0105
 30
0.0
 11
207.407
 21
23.0105
 31
0.0
  0
LINE
  8
0
 62
     0
 10
207.407
 20
23.0105
 30
0.0
 11
207.407
 21
22.01
 31
0.0
  0
LINE
  8
0
 62
     0
 10
207.407
 20
22.01
 30
0.0
 11
221.407
 21
22.01
 31
0.0
  0
LINE
  8
0
 62
     0
 10
221.407
 20
22.01
 30
0.0
 11
221.407
 21
23.0105
 31
0.0
  0
LINE
  8
0
 62
     0
 10
221.407
 20
23.0105
 30
0.0
 11
222.206
 21
23.0105
 31
0.0
  0
LINE
  8
0
 62
     0
 10
222.206
 20
23.0105
 30
0.0
 11
222.206
 21
26.1097
 31
0.0
  0
LINE
  8
0
 62
     0
 10
222.206
 20
26.1097
 30
0.0
 11
221.407
 21
26.1097
 31
0.0
  0
LINE
  8
0
 62
     0
 10
221.407
 20
26.1097
 30
0.0
 11
221.407
 21
31.9098
 31
0.0
  0
LINE
  8
0
 62
     0
 10
221.407
 20
31.9098
 30
0.0
 11
222.206
 21
31.9098
 31
0.0
  0
LINE
  8
0
 62
     0
 10
222.206
 20
31.9098
 30
0.0
 11
222.206
 21
35.0104
 31
0.0
  0
LINE
  8
0
 62
     0
 10
222.206
 20
35.0104
 30
0.0
 11
221.407
 21
35.0104
 31
0.0
  0
LINE
  8
0
 62
     0
 10
221.407
 20
35.0104
 30
0.0
 11
221.407
 21
36.0094
 31
0.0
  0
LINE
  8
0
 62
     0
 10
221.407
 20
36.0094
 30
0.0
 11
207.407
 21
36.0094
 31
0.0
  0
LINE
  8
0
 62
     0
 10
188.357
 20
36.0094
 30
0.0
 11
188.357
 21
35.0104
 31
0.0
  0
LINE
  8
0
 62
     0
 10
188.357
 20
35.0104
 30
0.0
 11
187.556
 21
35.0104
 31
0.0
  0
LINE
  8
0
 62
     0
 10
187.556
 20
35.0104
 30
0.0
 11
187.556
 21
31.9098
 31
0.0
  0
LINE
  8
0
 62
     0
 10
187.556
 20
31.9098
 30
0.0
 11
188.357
 21
31.9098
 31
0.0
  0
LINE
  8
0
 62
     0
 10
188.357
 20
31.9098
 30
0.0
 11
188.357
 21
26.1097
 31
0.0
  0
LINE
  8
0
 62
     0
 10
188.357
 20
26.1097
 30
0.0
 11
187.556
 21
26.1097
 31
0.0
  0
LINE
  8
0
 62
     0
 10
187.556
 20
26.1097
 30
0.0
 11
187.556
 21
23.0105
 31
0.0
  0
LINE
  8
0
 62
     0
 10
187.556
 20
23.0105
 30
0.0
 11
188.357
 21
23.0105
 31
0.0
  0
LINE
  8
0
 62
     0
 10
188.357
 20
23.0105
 30
0.0
 11
188.357
 21
22.01
 31
0.0
  0
LINE
  8
0
 62
     0
 10
188.357
 20
22.01
 30
0.0
 11
202.357
 21
22.01
 31
0.0
  0
LINE
  8
0
 62
     0
 10
202.357
 20
22.01
 30
0.0
 11
202.357
 21
23.0105
 31
0.0
  0
LINE
  8
0
 62
     0
 10
202.357
 20
23.0105
 30
0.0
 11
203.156
 21
23.0105
 31
0.0
  0
LINE
  8
0
 62
     0
 10
203.156
 20
23.0105
 30
0.0
 11
203.156
 21
26.1097
 31
0.0
  0
LINE
  8
0
 62
     0
 10
203.156
 20
26.1097
 30
0.0
 11
202.357
 21
26.1097
 31
0.0
  0
LINE
  8
0
 62
     0
 10
202.357
 20
26.1097
 30
0.0
 11
202.357
 21
31.9098
 31
0.0
  0
LINE
  8
0
 62
     0
 10
202.357
 20
31.9098
 30
0.0
 11
203.156
 21
31.9098
 31
0.0
  0
LINE
  8
0
 62
     0
 10
203.156
 20
31.9098
 30
0.0
 11
203.156
 21
35.0104
 31
0.0
  0
LINE
  8
0
 62
     0
 10
203.156
 20
35.0104
 30
0.0
 11
202.357
 21
35.0104
 31
0.0
  0
LINE
  8
0
 62
     0
 10
202.357
 20
35.0104
 30
0.0
 11
202.357
 21
36.0094
 31
0.0
  0
LINE
  8
0
 62
     0
 10
202.357
 20
36.0094
 30
0.0
 11
188.357
 21
36.0094
 31
0.0
  0
LINE
  8
0
 62
     0
 10
169.307
 20
36.0094
 30
0.0
 11
169.307
 21
35.0104
 31
0.0
  0
LINE
  8
0
 62
     0
 10
169.307
 20
35.0104
 30
0.0
 11
168.506
 21
35.0104
 31
0.0
  0
LINE
  8
0
 62
     0
 10
168.506
 20
35.0104
 30
0.0
 11
168.506
 21
31.9098
 31
0.0
  0
LINE
  8
0
 62
     0
 10
168.506
 20
31.9098
 30
0.0
 11
169.307
 21
31.9098
 31
0.0
  0
LINE
  8
0
 62
     0
 10
169.307
 20
31.9098
 30
0.0
 11
169.307
 21
26.1097
 31
0.0
  0
LINE
  8
0
 62
     0
 10
169.307
 20
26.1097
 30
0.0
 11
168.506
 21
26.1097
 31
0.0
  0
LINE
  8
0
 62
     0
 10
168.506
 20
26.1097
 30
0.0
 11
168.506
 21
23.0105
 31
0.0
  0
LINE
  8
0
 62
     0
 10
168.506
 20
23.0105
 30
0.0
 11
169.307
 21
23.0105
 31
0.0
  0
LINE
  8
0
 62
     0
 10
169.307
 20
23.0105
 30
0.0
 11
169.307
 21
22.01
 31
0.0
  0
LINE
  8
0
 62
     0
 10
169.307
 20
22.01
 30
0.0
 11
183.307
 21
22.01
 31
0.0
  0
LINE
  8
0
 62
     0
 10
183.307
 20
22.01
 30
0.0
 11
183.307
 21
23.0105
 31
0.0
  0
LINE
  8
0
 62
     0
 10
183.307
 20
23.0105
 30
0.0
 11
184.106
 21
23.0105
 31
0.0
  0
LINE
  8
0
 62
     0
 10
184.106
 20
23.0105
 30
0.0
 11
184.106
 21
26.1097
 31
0.0
  0
LINE
  8
0
 62
     0
 10
184.106
 20
26.1097
 30
0.0
 11
183.307
 21
26.1097
 31
0.0
  0
LINE
  8
0
 62
     0
 10
183.307
 20
26.1097
 30
0.0
 11
183.307
 21
31.9098
 31
0.0
  0
LINE
  8
0
 62
     0
 10
183.307
 20
31.9098
 30
0.0
 11
184.106
 21
31.9098
 31
0.0
  0
LINE
  8
0
 62
     0
 10
184.106
 20
31.9098
 30
0.0
 11
184.106
 21
35.0104
 31
0.0
  0
LINE
  8
0
 62
     0
 10
184.106
 20
35.0104
 30
0.0
 11
183.307
 21
35.0104
 31
0.0
  0
LINE
  8
0
 62
     0
 10
183.307
 20
35.0104
 30
0.0
 11
183.307
 21
36.0094
 31
0.0
  0
LINE
  8
0
 62
     0
 10
183.307
 20
36.0094
 30
0.0
 11
169.307
 21
36.0094
 31
0.0
  0
LINE
  8
0
 62
     0
 10
150.257
 20
36.0094
 30
0.0
 11
150.257
 21
35.0104
 31
0.0
  0
LINE
  8
0
 62
     0
 10
150.257
 20
35.0104
 30
0.0
 11
149.456
 21
35.0104
 31
0.0
  0
LINE
  8
0
 62
     0
 10
149.456
 20
35.0104
 30
0.0
 11
149.456
 21
31.9098
 31
0.0
  0
LINE
  8
0
 62
     0
 10
149.456
 20
31.9098
 30
0.0
 11
150.257
 21
31.9098
 31
0.0
  0
LINE
  8
0
 62
     0
 10
150.257
 20
31.9098
 30
0.0
 11
150.257
 21
26.1097
 31
0.0
  0
LINE
  8
0
 62
     0
 10
150.257
 20
26.1097
 30
0.0
 11
149.456
 21
26.1097
 31
0.0
  0
LINE
  8
0
 62
     0
 10
149.456
 20
26.1097
 30
0.0
 11
149.456
 21
23.0105
 31
0.0
  0
LINE
  8
0
 62
     0
 10
149.456
 20
23.0105
 30
0.0
 11
150.257
 21
23.0105
 31
0.0
  0
LINE
  8
0
 62
     0
 10
150.257
 20
23.0105
 30
0.0
 11
150.257
 21
22.01
 31
0.0
  0
LINE
  8
0
 62
     0
 10
150.257
 20
22.01
 30
0.0
 11
164.257
 21
22.01
 31
0.0
  0
LINE
  8
0
 62
     0
 10
164.257
 20
22.01
 30
0.0
 11
164.257
 21
23.0105
 31
0.0
  0
LINE
  8
0
 62
     0
 10
164.257
 20
23.0105
 30
0.0
 11
165.056
 21
23.0105
 31
0.0
  0
LINE
  8
0
 62
     0
 10
165.056
 20
23.0105
 30
0.0
 11
165.056
 21
26.1097
 31
0.0
  0
LINE
  8
0
 62
     0
 10
165.056
 20
26.1097
 30
0.0
 11
164.257
 21
26.1097
 31
0.0
  0
LINE
  8
0
 62
     0
 10
164.257
 20
26.1097
 30
0.0
 11
164.257
 21
31.9098
 31
0.0
  0
LINE
  8
0
 62
     0
 10
164.257
 20
31.9098
 30
0.0
 11
165.056
 21
31.9098
 31
0.0
  0
LINE
  8
0
 62
     0
 10
165.056
 20
31.9098
 30
0.0
 11
165.056
 21
35.0104
 31
0.0
  0
LINE
  8
0
 62
     0
 10
165.056
 20
35.0104
 30
0.0
 11
164.257
 21
35.0104
 31
0.0
  0
LINE
  8
0
 62
     0
 10
164.257
 20
35.0104
 30
0.0
 11
164.257
 21
36.0094
 31
0.0
  0
LINE
  8
0
 62
     0
 10
164.257
 20
36.0094
 30
0.0
 11
150.257
 21
36.0094
 31
0.0
  0
LINE
  8
0
 62
     0
 10
131.207
 20
36.0094
 30
0.0
 11
131.207
 21
35.0104
 31
0.0
  0
LINE
  8
0
 62
     0
 10
131.207
 20
35.0104
 30
0.0
 11
130.406
 21
35.0104
 31
0.0
  0
LINE
  8
0
 62
     0
 10
130.406
 20
35.0104
 30
0.0
 11
130.406
 21
31.9098
 31
0.0
  0
LINE
  8
0
 62
     0
 10
130.406
 20
31.9098
 30
0.0
 11
131.207
 21
31.9098
 31
0.0
  0
LINE
  8
0
 62
     0
 10
131.207
 20
31.9098
 30
0.0
 11
131.207
 21
26.1097
 31
0.0
  0
LINE
  8
0
 62
     0
 10
131.207
 20
26.1097
 30
0.0
 11
130.406
 21
26.1097
 31
0.0
  0
LINE
  8
0
 62
     0
 10
130.406
 20
26.1097
 30
0.0
 11
130.406
 21
23.0105
 31
0.0
  0
LINE
  8
0
 62
     0
 10
130.406
 20
23.0105
 30
0.0
 11
131.207
 21
23.0105
 31
0.0
  0
LINE
  8
0
 62
     0
 10
131.207
 20
23.0105
 30
0.0
 11
131.207
 21
22.01
 31
0.0
  0
LINE
  8
0
 62
     0
 10
131.207
 20
22.01
 30
0.0
 11
145.207
 21
22.01
 31
0.0
  0
LINE
  8
0
 62
     0
 10
145.207
 20
22.01
 30
0.0
 11
145.207
 21
23.0105
 31
0.0
  0
LINE
  8
0
 62
     0
 10
145.207
 20
23.0105
 30
0.0
 11
146.006
 21
23.0105
 31
0.0
  0
LINE
  8
0
 62
     0
 10
146.006
 20
23.0105
 30
0.0
 11
146.006
 21
26.1097
 31
0.0
  0
LINE
  8
0
 62
     0
 10
146.006
 20
26.1097
 30
0.0
 11
145.207
 21
26.1097
 31
0.0
  0
LINE
  8
0
 62
     0
 10
145.207
 20
26.1097
 30
0.0
 11
145.207
 21
31.9098
 31
0.0
  0
LINE
  8
0
 62
     0
 10
145.207
 20
31.9098
 30
0.0
 11
146.006
 21
31.9098
 31
0.0
  0
LINE
  8
0
 62
     0
 10
146.006
 20
31.9098
 30
0.0
 11
146.006
 21
35.0104
 31
0.0
  0
LINE
  8
0
 62
     0
 10
146.006
 20
35.0104
 30
0.0
 11
145.207
 21
35.0104
 31
0.0
  0
LINE
  8
0
 62
     0
 10
145.207
 20
35.0104
 30
0.0
 11
145.207
 21
36.0094
 31
0.0
  0
LINE
  8
0
 62
     0
 10
145.207
 20
36.0094
 30
0.0
 11
131.207
 21
36.0094
 31
0.0
  0
LINE
  8
0
 62
     0
 10
112.157
 20
36.0094
 30
0.0
 11
112.157
 21
35.0104
 31
0.0
  0
LINE
  8
0
 62
     0
 10
112.157
 20
35.0104
 30
0.0
 11
111.356
 21
35.0104
 31
0.0
  0
LINE
  8
0
 62
     0
 10
111.356
 20
35.0104
 30
0.0
 11
111.356
 21
31.9098
 31
0.0
  0
LINE
  8
0
 62
     0
 10
111.356
 20
31.9098
 30
0.0
 11
112.157
 21
31.9098
 31
0.0
  0
LINE
  8
0
 62
     0
 10
112.157
 20
31.9098
 30
0.0
 11
112.157
 21
26.1097
 31
0.0
  0
LINE
  8
0
 62
     0
 10
112.157
 20
26.1097
 30
0.0
 11
111.356
 21
26.1097
 31
0.0
  0
LINE
  8
0
 62
     0
 10
111.356
 20
26.1097
 30
0.0
 11
111.356
 21
23.0105
 31
0.0
  0
LINE
  8
0
 62
     0
 10
111.356
 20
23.0105
 30
0.0
 11
112.157
 21
23.0105
 31
0.0
  0
LINE
  8
0
 62
     0
 10
112.157
 20
23.0105
 30
0.0
 11
112.157
 21
22.01
 31
0.0
  0
LINE
  8
0
 62
     0
 10
112.157
 20
22.01
 30
0.0
 11
126.157
 21
22.01
 31
0.0
  0
LINE
  8
0
 62
     0
 10
126.157
 20
22.01
 30
0.0
 11
126.157
 21
23.0105
 31
0.0
  0
LINE
  8
0
 62
     0
 10
126.157
 20
23.0105
 30
0.0
 11
126.956
 21
23.0105
 31
0.0
  0
LINE
  8
0
 62
     0
 10
126.956
 20
23.0105
 30
0.0
 11
126.956
 21
26.1097
 31
0.0
  0
LINE
  8
0
 62
     0
 10
126.956
 20
26.1097
 30
0.0
 11
126.157
 21
26.1097
 31
0.0
  0
LINE
  8
0
 62
     0
 10
126.157
 20
26.1097
 30
0.0
 11
126.157
 21
31.9098
 31
0.0
  0
LINE
  8
0
 62
     0
 10
126.157
 20
31.9098
 30
0.0
 11
126.956
 21
31.9098
 31
0.0
  0
LINE
  8
0
 62
     0
 10
126.956
 20
31.9098
 30
0.0
 11
126.956
 21
35.0104
 31
0.0
  0
LINE
  8
0
 62
     0
 10
126.956
 20
35.0104
 30
0.0
 11
126.157
 21
35.0104
 31
0.0
  0
LINE
  8
0
 62
     0
 10
126.157
 20
35.0104
 30
0.0
 11
126.157
 21
36.0094
 31
0.0
  0
LINE
  8
0
 62
     0
 10
126.157
 20
36.0094
 30
0.0
 11
112.157
 21
36.0094
 31
0.0
  0
LINE
  8
0
 62
     0
 10
93.1072
 20
36.0094
 30
0.0
 11
93.1072
 21
35.0104
 31
0.0
  0
LINE
  8
0
 62
     0
 10
93.1072
 20
35.0104
 30
0.0
 11
92.3064
 21
35.0104
 31
0.0
  0
LINE
  8
0
 62
     0
 10
92.3064
 20
35.0104
 30
0.0
 11
92.3064
 21
31.9098
 31
0.0
  0
LINE
  8
0
 62
     0
 10
92.3064
 20
31.9098
 30
0.0
 11
93.1072
 21
31.9098
 31
0.0
  0
LINE
  8
0
 62
     0
 10
93.1072
 20
31.9098
 30
0.0
 11
93.1072
 21
26.1097
 31
0.0
  0
LINE
  8
0
 62
     0
 10
93.1072
 20
26.1097
 30
0.0
 11
92.3064
 21
26.1097
 31
0.0
  0
LINE
  8
0
 62
     0
 10
92.3064
 20
26.1097
 30
0.0
 11
92.3064
 21
23.0105
 31
0.0
  0
LINE
  8
0
 62
     0
 10
92.3064
 20
23.0105
 30
0.0
 11
93.1072
 21
23.0105
 31
0.0
  0
LINE
  8
0
 62
     0
 10
93.1072
 20
23.0105
 30
0.0
 11
93.1072
 21
22.01
 31
0.0
  0
LINE
  8
0
 62
     0
 10
93.1072
 20
22.01
 30
0.0
 11
107.107
 21
22.01
 31
0.0
  0
LINE
  8
0
 62
     0
 10
107.107
 20
22.01
 30
0.0
 11
107.107
 21
23.0105
 31
0.0
  0
LINE
  8
0
 62
     0
 10
107.107
 20
23.0105
 30
0.0
 11
107.906
 21
23.0105
 31
0.0
  0
LINE
  8
0
 62
     0
 10
107.906
 20
23.0105
 30
0.0
 11
107.906
 21
26.1097
 31
0.0
  0
LINE
  8
0
 62
     0
 10
107.906
 20
26.1097
 30
0.0
 11
107.107
 21
26.1097
 31
0.0
  0
LINE
  8
0
 62
     0
 10
107.107
 20
26.1097
 30
0.0
 11
107.107
 21
31.9098
 31
0.0
  0
LINE
  8
0
 62
     0
 10
107.107
 20
31.9098
 30
0.0
 11
107.906
 21
31.9098
 31
0.0
  0
LINE
  8
0
 62
     0
 10
107.906
 20
31.9098
 30
0.0
 11
107.906
 21
35.0104
 31
0.0
  0
LINE
  8
0
 62
     0
 10
107.906
 20
35.0104
 30
0.0
 11
107.107
 21
35.0104
 31
0.0
  0
LINE
  8
0
 62
     0
 10
107.107
 20
35.0104
 30
0.0
 11
107.107
 21
36.0094
 31
0.0
  0
LINE
  8
0
 62
     0
 10
107.107
 20
36.0094
 30
0.0
 11
93.1072
 21
36.0094
 31
0.0
  0
LINE
  8
0
 62
     0
 10
74.0572
 20
36.0094
 30
0.0
 11
74.0572
 21
35.0104
 31
0.0
  0
LINE
  8
0
 62
     0
 10
74.0572
 20
35.0104
 30
0.0
 11
73.2564
 21
35.0104
 31
0.0
  0
LINE
  8
0
 62
     0
 10
73.2564
 20
35.0104
 30
0.0
 11
73.2564
 21
31.9098
 31
0.0
  0
LINE
  8
0
 62
     0
 10
73.2564
 20
31.9098
 30
0.0
 11
74.0572
 21
31.9098
 31
0.0
  0
LINE
  8
0
 62
     0
 10
74.0572
 20
31.9098
 30
0.0
 11
74.0572
 21
26.1097
 31
0.0
  0
LINE
  8
0
 62
     0
 10
74.0572
 20
26.1097
 30
0.0
 11
73.2564
 21
26.1097
 31
0.0
  0
LINE
  8
0
 62
     0
 10
73.2564
 20
26.1097
 30
0.0
 11
73.2564
 21
23.0105
 31
0.0
  0
LINE
  8
0
 62
     0
 10
73.2564
 20
23.0105
 30
0.0
 11
74.0572
 21
23.0105
 31
0.0
  0
LINE
  8
0
 62
     0
 10
74.0572
 20
23.0105
 30
0.0
 11
74.0572
 21
22.01
 31
0.0
  0
LINE
  8
0
 62
     0
 10
74.0572
 20
22.01
 30
0.0
 11
88.0565
 21
22.01
 31
0.0
  0
LINE
  8
0
 62
     0
 10
88.0565
 20
22.01
 30
0.0
 11
88.0565
 21
23.0105
 31
0.0
  0
LINE
  8
0
 62
     0
 10
88.0565
 20
23.0105
 30
0.0
 11
88.8559
 21
23.0105
 31
0.0
  0
LINE
  8
0
 62
     0
 10
88.8559
 20
23.0105
 30
0.0
 11
88.8559
 21
26.1097
 31
0.0
  0
LINE
  8
0
 62
     0
 10
88.8559
 20
26.1097
 30
0.0
 11
88.0565
 21
26.1097
 31
0.0
  0
LINE
  8
0
 62
     0
 10
88.0565
 20
26.1097
 30
0.0
 11
88.0565
 21
31.9098
 31
0.0
  0
LINE
  8
0
 62
     0
 10
88.0565
 20
31.9098
 30
0.0
 11
88.8559
 21
31.9098
 31
0.0
  0
LINE
  8
0
 62
     0
 10
88.8559
 20
31.9098
 30
0.0
 11
88.8559
 21
35.0104
 31
0.0
  0
LINE
  8
0
 62
     0
 10
88.8559
 20
35.0104
 30
0.0
 11
88.0565
 21
35.0104
 31
0.0
  0
LINE
  8
0
 62
     0
 10
88.0565
 20
35.0104
 30
0.0
 11
88.0565
 21
36.0094
 31
0.0
  0
LINE
  8
0
 62
     0
 10
88.0565
 20
36.0094
 30
0.0
 11
74.0572
 21
36.0094
 31
0.0
  0
LINE
  8
0
 62
     0
 10
55.0072
 20
36.0094
 30
0.0
 11
55.0072
 21
35.0104
 31
0.0
  0
LINE
  8
0
 62
     0
 10
55.0072
 20
35.0104
 30
0.0
 11
54.2064
 21
35.0104
 31
0.0
  0
LINE
  8
0
 62
     0
 10
54.2064
 20
35.0104
 30
0.0
 11
54.2064
 21
31.9098
 31
0.0
  0
LINE
  8
0
 62
     0
 10
54.2064
 20
31.9098
 30
0.0
 11
55.0072
 21
31.9098
 31
0.0
  0
LINE
  8
0
 62
     0
 10
55.0072
 20
31.9098
 30
0.0
 11
55.0072
 21
26.1097
 31
0.0
  0
LINE
  8
0
 62
     0
 10
55.0072
 20
26.1097
 30
0.0
 11
54.2064
 21
26.1097
 31
0.0
  0
LINE
  8
0
 62
     0
 10
54.2064
 20
26.1097
 30
0.0
 11
54.2064
 21
23.0105
 31
0.0
  0
LINE
  8
0
 62
     0
 10
54.2064
 20
23.0105
 30
0.0
 11
55.0072
 21
23.0105
 31
0.0
  0
LINE
  8
0
 62
     0
 10
55.0072
 20
23.0105
 30
0.0
 11
55.0072
 21
22.01
 31
0.0
  0
LINE
  8
0
 62
     0
 10
55.0072
 20
22.01
 30
0.0
 11
69.0065
 21
22.01
 31
0.0
  0
LINE
  8
0
 62
     0
 10
69.0065
 20
22.01
 30
0.0
 11
69.0065
 21
23.0105
 31
0.0
  0
LINE
  8
0
 62
     0
 10
69.0065
 20
23.0105
 30
0.0
 11
69.8059
 21
23.0105
 31
0.0
  0
LINE
  8
0
 62
     0
 10
69.8059
 20
23.0105
 30
0.0
 11
69.8059
 21
26.1097
 31
0.0
  0
LINE
  8
0
 62
     0
 10
69.8059
 20
26.1097
 30
0.0
 11
69.0065
 21
26.1097
 31
0.0
  0
LINE
  8
0
 62
     0
 10
69.0065
 20
26.1097
 30
0.0
 11
69.0065
 21
31.9098
 31
0.0
  0
LINE
  8
0
 62
     0
 10
69.0065
 20
31.9098
 30
0.0
 11
69.8059
 21
31.9098
 31
0.0
  0
LINE
  8
0
 62
     0
 10
69.8059
 20
31.9098
 30
0.0
 11
69.8059
 21
35.0104
 31
0.0
  0
LINE
  8
0
 62
     0
 10
69.8059
 20
35.0104
 30
0.0
 11
69.0065
 21
35.0104
 31
0.0
  0
LINE
  8
0
 62
     0
 10
69.0065
 20
35.0104
 30
0.0
 11
69.0065
 21
36.0094
 31
0.0
  0
LINE
  8
0
 62
     0
 10
69.0065
 20
36.0094
 30
0.0
 11
55.0072
 21
36.0094
 31
0.0
  0
LINE
  8
0
 62
     0
 10
35.9572
 20
36.0094
 30
0.0
 11
35.9572
 21
35.0104
 31
0.0
  0
LINE
  8
0
 62
     0
 10
35.9572
 20
35.0104
 30
0.0
 11
35.1565
 21
35.0104
 31
0.0
  0
LINE
  8
0
 62
     0
 10
35.1565
 20
35.0104
 30
0.0
 11
35.1565
 21
31.9098
 31
0.0
  0
LINE
  8
0
 62
     0
 10
35.1565
 20
31.9098
 30
0.0
 11
35.9572
 21
31.9098
 31
0.0
  0
LINE
  8
0
 62
     0
 10
35.9572
 20
31.9098
 30
0.0
 11
35.9572
 21
26.1097
 31
0.0
  0
LINE
  8
0
 62
     0
 10
35.9572
 20
26.1097
 30
0.0
 11
35.1565
 21
26.1097
 31
0.0
  0
LINE
  8
0
 62
     0
 10
35.1565
 20
26.1097
 30
0.0
 11
35.1565
 21
23.0105
 31
0.0
  0
LINE
  8
0
 62
     0
 10
35.1565
 20
23.0105
 30
0.0
 11
35.9572
 21
23.0105
 31
0.0
  0
LINE
  8
0
 62
     0
 10
35.9572
 20
23.0105
 30
0.0
 11
35.9572
 21
22.01
 31
0.0
  0
LINE
  8
0
 62
     0
 10
35.9572
 20
22.01
 30
0.0
 11
49.9565
 21
22.01
 31
0.0
  0
LINE
  8
0
 62
     0
 10
49.9565
 20
22.01
 30
0.0
 11
49.9565
 21
23.0105
 31
0.0
  0
LINE
  8
0
 62
     0
 10
49.9565
 20
23.0105
 30
0.0
 11
50.7559
 21
23.0105
 31
0.0
  0
LINE
  8
0
 62
     0
 10
50.7559
 20
23.0105
 30
0.0
 11
50.7559
 21
26.1097
 31
0.0
  0
LINE
  8
0
 62
     0
 10
50.7559
 20
26.1097
 30
0.0
 11
49.9565
 21
26.1097
 31
0.0
  0
LINE
  8
0
 62
     0
 10
49.9565
 20
26.1097
 30
0.0
 11
49.9565
 21
31.9098
 31
0.0
  0
LINE
  8
0
 62
     0
 10
49.9565
 20
31.9098
 30
0.0
 11
50.7559
 21
31.9098
 31
0.0
  0
LINE
  8
0
 62
     0
 10
50.7559
 20
31.9098
 30
0.0
 11
50.7559
 21
35.0104
 31
0.0
  0
LINE
  8
0
 62
     0
 10
50.7559
 20
35.0104
 30
0.0
 11
49.9565
 21
35.0104
 31
0.0
  0
LINE
  8
0
 62
     0
 10
49.9565
 20
35.0104
 30
0.0
 11
49.9565
 21
36.0094
 31
0.0
  0
LINE
  8
0
 62
     0
 10
49.9565
 20
36.0094
 30
0.0
 11
35.9572
 21
36.0094
 31
0.0
  0
LINE
  8
0
 62
     0
 10
9.76203
 20
36.0094
 30
0.0
 11
9.76203
 21
35.0104
 31
0.0
  0
LINE
  8
0
 62
     0
 10
9.76203
 20
35.0104
 30
0.0
 11
8.96278
 21
35.0104
 31
0.0
  0
LINE
  8
0
 62
     0
 10
8.96278
 20
35.0104
 30
0.0
 11
8.96278
 21
31.9098
 31
0.0
  0
LINE
  8
0
 62
     0
 10
8.96278
 20
31.9098
 30
0.0
 11
9.76203
 21
31.9098
 31
0.0
  0
LINE
  8
0
 62
     0
 10
9.76203
 20
31.9098
 30
0.0
 11
9.76203
 21
26.1097
 31
0.0
  0
LINE
  8
0
 62
     0
 10
9.76203
 20
26.1097
 30
0.0
 11
8.96278
 21
26.1097
 31
0.0
  0
LINE
  8
0
 62
     0
 10
8.96278
 20
26.1097
 30
0.0
 11
8.96278
 21
23.0105
 31
0.0
  0
LINE
  8
0
 62
     0
 10
8.96278
 20
23.0105
 30
0.0
 11
9.76203
 21
23.0105
 31
0.0
  0
LINE
  8
0
 62
     0
 10
9.76203
 20
23.0105
 30
0.0
 11
9.76203
 21
22.01
 31
0.0
  0
LINE
  8
0
 62
     0
 10
9.76203
 20
22.01
 30
0.0
 11
23.7629
 21
22.01
 31
0.0
  0
LINE
  8
0
 62
     0
 10
23.7629
 20
22.01
 30
0.0
 11
23.7629
 21
23.0105
 31
0.0
  0
LINE
  8
0
 62
     0
 10
23.7629
 20
23.0105
 30
0.0
 11
24.5622
 21
23.0105
 31
0.0
  0
LINE
  8
0
 62
     0
 10
24.5622
 20
23.0105
 30
0.0
 11
24.5622
 21
26.1097
 31
0.0
  0
LINE
  8
0
 62
     0
 10
24.5622
 20
26.1097
 30
0.0
 11
23.7629
 21
26.1097
 31
0.0
  0
LINE
  8
0
 62
     0
 10
23.7629
 20
26.1097
 30
0.0
 11
23.7629
 21
31.9098
 31
0.0
  0
LINE
  8
0
 62
     0
 10
23.7629
 20
31.9098
 30
0.0
 11
24.5622
 21
31.9098
 31
0.0
  0
LINE
  8
0
 62
     0
 10
24.5622
 20
31.9098
 30
0.0
 11
24.5622
 21
35.0104
 31
0.0
  0
LINE
  8
0
 62
     0
 10
24.5622
 20
35.0104
 30
0.0
 11
23.7629
 21
35.0104
 31
0.0
  0
LINE
  8
0
 62
     0
 10
23.7629
 20
35.0104
 30
0.0
 11
23.7629
 21
36.0094
 31
0.0
  0
LINE
  8
0
 62
     0
 10
23.7629
 20
36.0094
 30
0.0
 11
9.76203
 21
36.0094
 31
0.0
  0
LINE
  8
0
 62
     0
 10
243.126
 20
55.0594
 30
0.0
 11
243.126
 21
54.0604
 31
0.0
  0
LINE
  8
0
 62
     0
 10
243.126
 20
54.0604
 30
0.0
 11
242.325
 21
54.0604
 31
0.0
  0
LINE
  8
0
 62
     0
 10
242.325
 20
54.0604
 30
0.0
 11
242.325
 21
50.9598
 31
0.0
  0
LINE
  8
0
 62
     0
 10
242.325
 20
50.9598
 30
0.0
 11
243.126
 21
50.9598
 31
0.0
  0
LINE
  8
0
 62
     0
 10
243.126
 20
50.9598
 30
0.0
 11
243.126
 21
45.1598
 31
0.0
  0
LINE
  8
0
 62
     0
 10
243.126
 20
45.1598
 30
0.0
 11
242.325
 21
45.1598
 31
0.0
  0
LINE
  8
0
 62
     0
 10
242.325
 20
45.1598
 30
0.0
 11
242.325
 21
42.0606
 31
0.0
  0
LINE
  8
0
 62
     0
 10
242.325
 20
42.0606
 30
0.0
 11
243.126
 21
42.0606
 31
0.0
  0
LINE
  8
0
 62
     0
 10
243.126
 20
42.0606
 30
0.0
 11
243.126
 21
41.0602
 31
0.0
  0
LINE
  8
0
 62
     0
 10
243.126
 20
41.0602
 30
0.0
 11
257.125
 21
41.0602
 31
0.0
  0
LINE
  8
0
 62
     0
 10
257.125
 20
41.0602
 30
0.0
 11
257.125
 21
42.0606
 31
0.0
  0
LINE
  8
0
 62
     0
 10
257.125
 20
42.0606
 30
0.0
 11
257.926
 21
42.0606
 31
0.0
  0
LINE
  8
0
 62
     0
 10
257.926
 20
42.0606
 30
0.0
 11
257.926
 21
45.1598
 31
0.0
  0
LINE
  8
0
 62
     0
 10
257.926
 20
45.1598
 30
0.0
 11
257.125
 21
45.1598
 31
0.0
  0
LINE
  8
0
 62
     0
 10
257.125
 20
45.1598
 30
0.0
 11
257.125
 21
50.9598
 31
0.0
  0
LINE
  8
0
 62
     0
 10
257.125
 20
50.9598
 30
0.0
 11
257.926
 21
50.9598
 31
0.0
  0
LINE
  8
0
 62
     0
 10
257.926
 20
50.9598
 30
0.0
 11
257.926
 21
54.0604
 31
0.0
  0
LINE
  8
0
 62
     0
 10
257.926
 20
54.0604
 30
0.0
 11
257.125
 21
54.0604
 31
0.0
  0
LINE
  8
0
 62
     0
 10
257.125
 20
54.0604
 30
0.0
 11
257.125
 21
55.0594
 31
0.0
  0
LINE
  8
0
 62
     0
 10
257.125
 20
55.0594
 30
0.0
 11
243.126
 21
55.0594
 31
0.0
  0
LINE
  8
0
 62
     0
 10
216.932
 20
55.0594
 30
0.0
 11
216.932
 21
54.0604
 31
0.0
  0
LINE
  8
0
 62
     0
 10
216.932
 20
54.0604
 30
0.0
 11
216.131
 21
54.0604
 31
0.0
  0
LINE
  8
0
 62
     0
 10
216.131
 20
54.0604
 30
0.0
 11
216.131
 21
50.9598
 31
0.0
  0
LINE
  8
0
 62
     0
 10
216.131
 20
50.9598
 30
0.0
 11
216.932
 21
50.9598
 31
0.0
  0
LINE
  8
0
 62
     0
 10
216.932
 20
50.9598
 30
0.0
 11
216.932
 21
45.1598
 31
0.0
  0
LINE
  8
0
 62
     0
 10
216.932
 20
45.1598
 30
0.0
 11
216.131
 21
45.1598
 31
0.0
  0
LINE
  8
0
 62
     0
 10
216.131
 20
45.1598
 30
0.0
 11
216.131
 21
42.0606
 31
0.0
  0
LINE
  8
0
 62
     0
 10
216.131
 20
42.0606
 30
0.0
 11
216.932
 21
42.0606
 31
0.0
  0
LINE
  8
0
 62
     0
 10
216.932
 20
42.0606
 30
0.0
 11
216.932
 21
41.0602
 31
0.0
  0
LINE
  8
0
 62
     0
 10
216.932
 20
41.0602
 30
0.0
 11
230.932
 21
41.0602
 31
0.0
  0
LINE
  8
0
 62
     0
 10
230.932
 20
41.0602
 30
0.0
 11
230.932
 21
42.0606
 31
0.0
  0
LINE
  8
0
 62
     0
 10
230.932
 20
42.0606
 30
0.0
 11
231.731
 21
42.0606
 31
0.0
  0
LINE
  8
0
 62
     0
 10
231.731
 20
42.0606
 30
0.0
 11
231.731
 21
45.1598
 31
0.0
  0
LINE
  8
0
 62
     0
 10
231.731
 20
45.1598
 30
0.0
 11
230.932
 21
45.1598
 31
0.0
  0
LINE
  8
0
 62
     0
 10
230.932
 20
45.1598
 30
0.0
 11
230.932
 21
50.9598
 31
0.0
  0
LINE
  8
0
 62
     0
 10
230.932
 20
50.9598
 30
0.0
 11
231.731
 21
50.9598
 31
0.0
  0
LINE
  8
0
 62
     0
 10
231.731
 20
50.9598
 30
0.0
 11
231.731
 21
54.0604
 31
0.0
  0
LINE
  8
0
 62
     0
 10
231.731
 20
54.0604
 30
0.0
 11
230.932
 21
54.0604
 31
0.0
  0
LINE
  8
0
 62
     0
 10
230.932
 20
54.0604
 30
0.0
 11
230.932
 21
55.0594
 31
0.0
  0
LINE
  8
0
 62
     0
 10
230.932
 20
55.0594
 30
0.0
 11
216.932
 21
55.0594
 31
0.0
  0
LINE
  8
0
 62
     0
 10
197.882
 20
55.0594
 30
0.0
 11
197.882
 21
54.0604
 31
0.0
  0
LINE
  8
0
 62
     0
 10
197.882
 20
54.0604
 30
0.0
 11
197.081
 21
54.0604
 31
0.0
  0
LINE
  8
0
 62
     0
 10
197.081
 20
54.0604
 30
0.0
 11
197.081
 21
50.9598
 31
0.0
  0
LINE
  8
0
 62
     0
 10
197.081
 20
50.9598
 30
0.0
 11
197.882
 21
50.9598
 31
0.0
  0
LINE
  8
0
 62
     0
 10
197.882
 20
50.9598
 30
0.0
 11
197.882
 21
45.1598
 31
0.0
  0
LINE
  8
0
 62
     0
 10
197.882
 20
45.1598
 30
0.0
 11
197.081
 21
45.1598
 31
0.0
  0
LINE
  8
0
 62
     0
 10
197.081
 20
45.1598
 30
0.0
 11
197.081
 21
42.0606
 31
0.0
  0
LINE
  8
0
 62
     0
 10
197.081
 20
42.0606
 30
0.0
 11
197.882
 21
42.0606
 31
0.0
  0
LINE
  8
0
 62
     0
 10
197.882
 20
42.0606
 30
0.0
 11
197.882
 21
41.0602
 31
0.0
  0
LINE
  8
0
 62
     0
 10
197.882
 20
41.0602
 30
0.0
 11
211.882
 21
41.0602
 31
0.0
  0
LINE
  8
0
 62
     0
 10
211.882
 20
41.0602
 30
0.0
 11
211.882
 21
42.0606
 31
0.0
  0
LINE
  8
0
 62
     0
 10
211.882
 20
42.0606
 30
0.0
 11
212.681
 21
42.0606
 31
0.0
  0
LINE
  8
0
 62
     0
 10
212.681
 20
42.0606
 30
0.0
 11
212.681
 21
45.1598
 31
0.0
  0
LINE
  8
0
 62
     0
 10
212.681
 20
45.1598
 30
0.0
 11
211.882
 21
45.1598
 31
0.0
  0
LINE
  8
0
 62
     0
 10
211.882
 20
45.1598
 30
0.0
 11
211.882
 21
50.9598
 31
0.0
  0
LINE
  8
0
 62
     0
 10
211.882
 20
50.9598
 30
0.0
 11
212.681
 21
50.9598
 31
0.0
  0
LINE
  8
0
 62
     0
 10
212.681
 20
50.9598
 30
0.0
 11
212.681
 21
54.0604
 31
0.0
  0
LINE
  8
0
 62
     0
 10
212.681
 20
54.0604
 30
0.0
 11
211.882
 21
54.0604
 31
0.0
  0
LINE
  8
0
 62
     0
 10
211.882
 20
54.0604
 30
0.0
 11
211.882
 21
55.0594
 31
0.0
  0
LINE
  8
0
 62
     0
 10
211.882
 20
55.0594
 30
0.0
 11
197.882
 21
55.0594
 31
0.0
  0
LINE
  8
0
 62
     0
 10
178.832
 20
55.0594
 30
0.0
 11
178.832
 21
54.0604
 31
0.0
  0
LINE
  8
0
 62
     0
 10
178.832
 20
54.0604
 30
0.0
 11
178.031
 21
54.0604
 31
0.0
  0
LINE
  8
0
 62
     0
 10
178.031
 20
54.0604
 30
0.0
 11
178.031
 21
50.9598
 31
0.0
  0
LINE
  8
0
 62
     0
 10
178.031
 20
50.9598
 30
0.0
 11
178.832
 21
50.9598
 31
0.0
  0
LINE
  8
0
 62
     0
 10
178.832
 20
50.9598
 30
0.0
 11
178.832
 21
45.1598
 31
0.0
  0
LINE
  8
0
 62
     0
 10
178.832
 20
45.1598
 30
0.0
 11
178.031
 21
45.1598
 31
0.0
  0
LINE
  8
0
 62
     0
 10
178.031
 20
45.1598
 30
0.0
 11
178.031
 21
42.0606
 31
0.0
  0
LINE
  8
0
 62
     0
 10
178.031
 20
42.0606
 30
0.0
 11
178.832
 21
42.0606
 31
0.0
  0
LINE
  8
0
 62
     0
 10
178.832
 20
42.0606
 30
0.0
 11
178.832
 21
41.0602
 31
0.0
  0
LINE
  8
0
 62
     0
 10
178.832
 20
41.0602
 30
0.0
 11
192.832
 21
41.0602
 31
0.0
  0
LINE
  8
0
 62
     0
 10
192.832
 20
41.0602
 30
0.0
 11
192.832
 21
42.0606
 31
0.0
  0
LINE
  8
0
 62
     0
 10
192.832
 20
42.0606
 30
0.0
 11
193.631
 21
42.0606
 31
0.0
  0
LINE
  8
0
 62
     0
 10
193.631
 20
42.0606
 30
0.0
 11
193.631
 21
45.1598
 31
0.0
  0
LINE
  8
0
 62
     0
 10
193.631
 20
45.1598
 30
0.0
 11
192.832
 21
45.1598
 31
0.0
  0
LINE
  8
0
 62
     0
 10
192.832
 20
45.1598
 30
0.0
 11
192.832
 21
50.9598
 31
0.0
  0
LINE
  8
0
 62
     0
 10
192.832
 20
50.9598
 30
0.0
 11
193.631
 21
50.9598
 31
0.0
  0
LINE
  8
0
 62
     0
 10
193.631
 20
50.9598
 30
0.0
 11
193.631
 21
54.0604
 31
0.0
  0
LINE
  8
0
 62
     0
 10
193.631
 20
54.0604
 30
0.0
 11
192.832
 21
54.0604
 31
0.0
  0
LINE
  8
0
 62
     0
 10
192.832
 20
54.0604
 30
0.0
 11
192.832
 21
55.0594
 31
0.0
  0
LINE
  8
0
 62
     0
 10
192.832
 20
55.0594
 30
0.0
 11
178.832
 21
55.0594
 31
0.0
  0
LINE
  8
0
 62
     0
 10
159.782
 20
55.0594
 30
0.0
 11
159.782
 21
54.0604
 31
0.0
  0
LINE
  8
0
 62
     0
 10
159.782
 20
54.0604
 30
0.0
 11
158.981
 21
54.0604
 31
0.0
  0
LINE
  8
0
 62
     0
 10
158.981
 20
54.0604
 30
0.0
 11
158.981
 21
50.9598
 31
0.0
  0
LINE
  8
0
 62
     0
 10
158.981
 20
50.9598
 30
0.0
 11
159.782
 21
50.9598
 31
0.0
  0
LINE
  8
0
 62
     0
 10
159.782
 20
50.9598
 30
0.0
 11
159.782
 21
45.1598
 31
0.0
  0
LINE
  8
0
 62
     0
 10
159.782
 20
45.1598
 30
0.0
 11
158.981
 21
45.1598
 31
0.0
  0
LINE
  8
0
 62
     0
 10
158.981
 20
45.1598
 30
0.0
 11
158.981
 21
42.0606
 31
0.0
  0
LINE
  8
0
 62
     0
 10
158.981
 20
42.0606
 30
0.0
 11
159.782
 21
42.0606
 31
0.0
  0
LINE
  8
0
 62
     0
 10
159.782
 20
42.0606
 30
0.0
 11
159.782
 21
41.0602
 31
0.0
  0
LINE
  8
0
 62
     0
 10
159.782
 20
41.0602
 30
0.0
 11
173.782
 21
41.0602
 31
0.0
  0
LINE
  8
0
 62
     0
 10
173.782
 20
41.0602
 30
0.0
 11
173.782
 21
42.0606
 31
0.0
  0
LINE
  8
0
 62
     0
 10
173.782
 20
42.0606
 30
0.0
 11
174.581
 21
42.0606
 31
0.0
  0
LINE
  8
0
 62
     0
 10
174.581
 20
42.0606
 30
0.0
 11
174.581
 21
45.1598
 31
0.0
  0
LINE
  8
0
 62
     0
 10
174.581
 20
45.1598
 30
0.0
 11
173.782
 21
45.1598
 31
0.0
  0
LINE
  8
0
 62
     0
 10
173.782
 20
45.1598
 30
0.0
 11
173.782
 21
50.9598
 31
0.0
  0
LINE
  8
0
 62
     0
 10
173.782
 20
50.9598
 30
0.0
 11
174.581
 21
50.9598
 31
0.0
  0
LINE
  8
0
 62
     0
 10
174.581
 20
50.9598
 30
0.0
 11
174.581
 21
54.0604
 31
0.0
  0
LINE
  8
0
 62
     0
 10
174.581
 20
54.0604
 30
0.0
 11
173.782
 21
54.0604
 31
0.0
  0
LINE
  8
0
 62
     0
 10
173.782
 20
54.0604
 30
0.0
 11
173.782
 21
55.0594
 31
0.0
  0
LINE
  8
0
 62
     0
 10
173.782
 20
55.0594
 30
0.0
 11
159.782
 21
55.0594
 31
0.0
  0
LINE
  8
0
 62
     0
 10
140.732
 20
55.0594
 30
0.0
 11
140.732
 21
54.0604
 31
0.0
  0
LINE
  8
0
 62
     0
 10
140.732
 20
54.0604
 30
0.0
 11
139.931
 21
54.0604
 31
0.0
  0
LINE
  8
0
 62
     0
 10
139.931
 20
54.0604
 30
0.0
 11
139.931
 21
50.9598
 31
0.0
  0
LINE
  8
0
 62
     0
 10
139.931
 20
50.9598
 30
0.0
 11
140.732
 21
50.9598
 31
0.0
  0
LINE
  8
0
 62
     0
 10
140.732
 20
50.9598
 30
0.0
 11
140.732
 21
45.1598
 31
0.0
  0
LINE
  8
0
 62
     0
 10
140.732
 20
45.1598
 30
0.0
 11
139.931
 21
45.1598
 31
0.0
  0
LINE
  8
0
 62
     0
 10
139.931
 20
45.1598
 30
0.0
 11
139.931
 21
42.0606
 31
0.0
  0
LINE
  8
0
 62
     0
 10
139.931
 20
42.0606
 30
0.0
 11
140.732
 21
42.0606
 31
0.0
  0
LINE
  8
0
 62
     0
 10
140.732
 20
42.0606
 30
0.0
 11
140.732
 21
41.0602
 31
0.0
  0
LINE
  8
0
 62
     0
 10
140.732
 20
41.0602
 30
0.0
 11
154.732
 21
41.0602
 31
0.0
  0
LINE
  8
0
 62
     0
 10
154.732
 20
41.0602
 30
0.0
 11
154.732
 21
42.0606
 31
0.0
  0
LINE
  8
0
 62
     0
 10
154.732
 20
42.0606
 30
0.0
 11
155.531
 21
42.0606
 31
0.0
  0
LINE
  8
0
 62
     0
 10
155.531
 20
42.0606
 30
0.0
 11
155.531
 21
45.1598
 31
0.0
  0
LINE
  8
0
 62
     0
 10
155.531
 20
45.1598
 30
0.0
 11
154.732
 21
45.1598
 31
0.0
  0
LINE
  8
0
 62
     0
 10
154.732
 20
45.1598
 30
0.0
 11
154.732
 21
50.9598
 31
0.0
  0
LINE
  8
0
 62
     0
 10
154.732
 20
50.9598
 30
0.0
 11
155.531
 21
50.9598
 31
0.0
  0
LINE
  8
0
 62
     0
 10
155.531
 20
50.9598
 30
0.0
 11
155.531
 21
54.0604
 31
0.0
  0
LINE
  8
0
 62
     0
 10
155.531
 20
54.0604
 30
0.0
 11
154.732
 21
54.0604
 31
0.0
  0
LINE
  8
0
 62
     0
 10
154.732
 20
54.0604
 30
0.0
 11
154.732
 21
55.0594
 31
0.0
  0
LINE
  8
0
 62
     0
 10
154.732
 20
55.0594
 30
0.0
 11
140.732
 21
55.0594
 31
0.0
  0
LINE
  8
0
 62
     0
 10
121.682
 20
55.0594
 30
0.0
 11
121.682
 21
54.0604
 31
0.0
  0
LINE
  8
0
 62
     0
 10
121.682
 20
54.0604
 30
0.0
 11
120.881
 21
54.0604
 31
0.0
  0
LINE
  8
0
 62
     0
 10
120.881
 20
54.0604
 30
0.0
 11
120.881
 21
50.9598
 31
0.0
  0
LINE
  8
0
 62
     0
 10
120.881
 20
50.9598
 30
0.0
 11
121.682
 21
50.9598
 31
0.0
  0
LINE
  8
0
 62
     0
 10
121.682
 20
50.9598
 30
0.0
 11
121.682
 21
45.1598
 31
0.0
  0
LINE
  8
0
 62
     0
 10
121.682
 20
45.1598
 30
0.0
 11
120.881
 21
45.1598
 31
0.0
  0
LINE
  8
0
 62
     0
 10
120.881
 20
45.1598
 30
0.0
 11
120.881
 21
42.0606
 31
0.0
  0
LINE
  8
0
 62
     0
 10
120.881
 20
42.0606
 30
0.0
 11
121.682
 21
42.0606
 31
0.0
  0
LINE
  8
0
 62
     0
 10
121.682
 20
42.0606
 30
0.0
 11
121.682
 21
41.0602
 31
0.0
  0
LINE
  8
0
 62
     0
 10
121.682
 20
41.0602
 30
0.0
 11
135.682
 21
41.0602
 31
0.0
  0
LINE
  8
0
 62
     0
 10
135.682
 20
41.0602
 30
0.0
 11
135.682
 21
42.0606
 31
0.0
  0
LINE
  8
0
 62
     0
 10
135.682
 20
42.0606
 30
0.0
 11
136.481
 21
42.0606
 31
0.0
  0
LINE
  8
0
 62
     0
 10
136.481
 20
42.0606
 30
0.0
 11
136.481
 21
45.1598
 31
0.0
  0
LINE
  8
0
 62
     0
 10
136.481
 20
45.1598
 30
0.0
 11
135.682
 21
45.1598
 31
0.0
  0
LINE
  8
0
 62
     0
 10
135.682
 20
45.1598
 30
0.0
 11
135.682
 21
50.9598
 31
0.0
  0
LINE
  8
0
 62
     0
 10
135.682
 20
50.9598
 30
0.0
 11
136.481
 21
50.9598
 31
0.0
  0
LINE
  8
0
 62
     0
 10
136.481
 20
50.9598
 30
0.0
 11
136.481
 21
54.0604
 31
0.0
  0
LINE
  8
0
 62
     0
 10
136.481
 20
54.0604
 30
0.0
 11
135.682
 21
54.0604
 31
0.0
  0
LINE
  8
0
 62
     0
 10
135.682
 20
54.0604
 30
0.0
 11
135.682
 21
55.0594
 31
0.0
  0
LINE
  8
0
 62
     0
 10
135.682
 20
55.0594
 30
0.0
 11
121.682
 21
55.0594
 31
0.0
  0
LINE
  8
0
 62
     0
 10
102.632
 20
55.0594
 30
0.0
 11
102.632
 21
54.0604
 31
0.0
  0
LINE
  8
0
 62
     0
 10
102.632
 20
54.0604
 30
0.0
 11
101.831
 21
54.0604
 31
0.0
  0
LINE
  8
0
 62
     0
 10
101.831
 20
54.0604
 30
0.0
 11
101.831
 21
50.9598
 31
0.0
  0
LINE
  8
0
 62
     0
 10
101.831
 20
50.9598
 30
0.0
 11
102.632
 21
50.9598
 31
0.0
  0
LINE
  8
0
 62
     0
 10
102.632
 20
50.9598
 30
0.0
 11
102.632
 21
45.1598
 31
0.0
  0
LINE
  8
0
 62
     0
 10
102.632
 20
45.1598
 30
0.0
 11
101.831
 21
45.1598
 31
0.0
  0
LINE
  8
0
 62
     0
 10
101.831
 20
45.1598
 30
0.0
 11
101.831
 21
42.0606
 31
0.0
  0
LINE
  8
0
 62
     0
 10
101.831
 20
42.0606
 30
0.0
 11
102.632
 21
42.0606
 31
0.0
  0
LINE
  8
0
 62
     0
 10
102.632
 20
42.0606
 30
0.0
 11
102.632
 21
41.0602
 31
0.0
  0
LINE
  8
0
 62
     0
 10
102.632
 20
41.0602
 30
0.0
 11
116.632
 21
41.0602
 31
0.0
  0
LINE
  8
0
 62
     0
 10
116.632
 20
41.0602
 30
0.0
 11
116.632
 21
42.0606
 31
0.0
  0
LINE
  8
0
 62
     0
 10
116.632
 20
42.0606
 30
0.0
 11
117.431
 21
42.0606
 31
0.0
  0
LINE
  8
0
 62
     0
 10
117.431
 20
42.0606
 30
0.0
 11
117.431
 21
45.1598
 31
0.0
  0
LINE
  8
0
 62
     0
 10
117.431
 20
45.1598
 30
0.0
 11
116.632
 21
45.1598
 31
0.0
  0
LINE
  8
0
 62
     0
 10
116.632
 20
45.1598
 30
0.0
 11
116.632
 21
50.9598
 31
0.0
  0
LINE
  8
0
 62
     0
 10
116.632
 20
50.9598
 30
0.0
 11
117.431
 21
50.9598
 31
0.0
  0
LINE
  8
0
 62
     0
 10
117.431
 20
50.9598
 30
0.0
 11
117.431
 21
54.0604
 31
0.0
  0
LINE
  8
0
 62
     0
 10
117.431
 20
54.0604
 30
0.0
 11
116.632
 21
54.0604
 31
0.0
  0
LINE
  8
0
 62
     0
 10
116.632
 20
54.0604
 30
0.0
 11
116.632
 21
55.0594
 31
0.0
  0
LINE
  8
0
 62
     0
 10
116.632
 20
55.0594
 30
0.0
 11
102.632
 21
55.0594
 31
0.0
  0
LINE
  8
0
 62
     0
 10
83.5822
 20
55.0594
 30
0.0
 11
83.5822
 21
54.0604
 31
0.0
  0
LINE
  8
0
 62
     0
 10
83.5822
 20
54.0604
 30
0.0
 11
82.7814
 21
54.0604
 31
0.0
  0
LINE
  8
0
 62
     0
 10
82.7814
 20
54.0604
 30
0.0
 11
82.7814
 21
50.9598
 31
0.0
  0
LINE
  8
0
 62
     0
 10
82.7814
 20
50.9598
 30
0.0
 11
83.5822
 21
50.9598
 31
0.0
  0
LINE
  8
0
 62
     0
 10
83.5822
 20
50.9598
 30
0.0
 11
83.5822
 21
45.1598
 31
0.0
  0
LINE
  8
0
 62
     0
 10
83.5822
 20
45.1598
 30
0.0
 11
82.7814
 21
45.1598
 31
0.0
  0
LINE
  8
0
 62
     0
 10
82.7814
 20
45.1598
 30
0.0
 11
82.7814
 21
42.0606
 31
0.0
  0
LINE
  8
0
 62
     0
 10
82.7814
 20
42.0606
 30
0.0
 11
83.5822
 21
42.0606
 31
0.0
  0
LINE
  8
0
 62
     0
 10
83.5822
 20
42.0606
 30
0.0
 11
83.5822
 21
41.0602
 31
0.0
  0
LINE
  8
0
 62
     0
 10
83.5822
 20
41.0602
 30
0.0
 11
97.5815
 21
41.0602
 31
0.0
  0
LINE
  8
0
 62
     0
 10
97.5815
 20
41.0602
 30
0.0
 11
97.5815
 21
42.0606
 31
0.0
  0
LINE
  8
0
 62
     0
 10
97.5815
 20
42.0606
 30
0.0
 11
98.3809
 21
42.0606
 31
0.0
  0
LINE
  8
0
 62
     0
 10
98.3809
 20
42.0606
 30
0.0
 11
98.3809
 21
45.1598
 31
0.0
  0
LINE
  8
0
 62
     0
 10
98.3809
 20
45.1598
 30
0.0
 11
97.5815
 21
45.1598
 31
0.0
  0
LINE
  8
0
 62
     0
 10
97.5815
 20
45.1598
 30
0.0
 11
97.5815
 21
50.9598
 31
0.0
  0
LINE
  8
0
 62
     0
 10
97.5815
 20
50.9598
 30
0.0
 11
98.3809
 21
50.9598
 31
0.0
  0
LINE
  8
0
 62
     0
 10
98.3809
 20
50.9598
 30
0.0
 11
98.3809
 21
54.0604
 31
0.0
  0
LINE
  8
0
 62
     0
 10
98.3809
 20
54.0604
 30
0.0
 11
97.5815
 21
54.0604
 31
0.0
  0
LINE
  8
0
 62
     0
 10
97.5815
 20
54.0604
 30
0.0
 11
97.5815
 21
55.0594
 31
0.0
  0
LINE
  8
0
 62
     0
 10
97.5815
 20
55.0594
 30
0.0
 11
83.5822
 21
55.0594
 31
0.0
  0
LINE
  8
0
 62
     0
 10
64.5322
 20
55.0594
 30
0.0
 11
64.5322
 21
54.0604
 31
0.0
  0
LINE
  8
0
 62
     0
 10
64.5322
 20
54.0604
 30
0.0
 11
63.7314
 21
54.0604
 31
0.0
  0
LINE
  8
0
 62
     0
 10
63.7314
 20
54.0604
 30
0.0
 11
63.7314
 21
50.9598
 31
0.0
  0
LINE
  8
0
 62
     0
 10
63.7314
 20
50.9598
 30
0.0
 11
64.5322
 21
50.9598
 31
0.0
  0
LINE
  8
0
 62
     0
 10
64.5322
 20
50.9598
 30
0.0
 11
64.5322
 21
45.1598
 31
0.0
  0
LINE
  8
0
 62
     0
 10
64.5322
 20
45.1598
 30
0.0
 11
63.7314
 21
45.1598
 31
0.0
  0
LINE
  8
0
 62
     0
 10
63.7314
 20
45.1598
 30
0.0
 11
63.7314
 21
42.0606
 31
0.0
  0
LINE
  8
0
 62
     0
 10
63.7314
 20
42.0606
 30
0.0
 11
64.5322
 21
42.0606
 31
0.0
  0
LINE
  8
0
 62
     0
 10
64.5322
 20
42.0606
 30
0.0
 11
64.5322
 21
41.0602
 31
0.0
  0
LINE
  8
0
 62
     0
 10
64.5322
 20
41.0602
 30
0.0
 11
78.5315
 21
41.0602
 31
0.0
  0
LINE
  8
0
 62
     0
 10
78.5315
 20
41.0602
 30
0.0
 11
78.5315
 21
42.0606
 31
0.0
  0
LINE
  8
0
 62
     0
 10
78.5315
 20
42.0606
 30
0.0
 11
79.3309
 21
42.0606
 31
0.0
  0
LINE
  8
0
 62
     0
 10
79.3309
 20
42.0606
 30
0.0
 11
79.3309
 21
45.1598
 31
0.0
  0
LINE
  8
0
 62
     0
 10
79.3309
 20
45.1598
 30
0.0
 11
78.5315
 21
45.1598
 31
0.0
  0
LINE
  8
0
 62
     0
 10
78.5315
 20
45.1598
 30
0.0
 11
78.5315
 21
50.9598
 31
0.0
  0
LINE
  8
0
 62
     0
 10
78.5315
 20
50.9598
 30
0.0
 11
79.3309
 21
50.9598
 31
0.0
  0
LINE
  8
0
 62
     0
 10
79.3309
 20
50.9598
 30
0.0
 11
79.3309
 21
54.0604
 31
0.0
  0
LINE
  8
0
 62
     0
 10
79.3309
 20
54.0604
 30
0.0
 11
78.5315
 21
54.0604
 31
0.0
  0
LINE
  8
0
 62
     0
 10
78.5315
 20
54.0604
 30
0.0
 11
78.5315
 21
55.0594
 31
0.0
  0
LINE
  8
0
 62
     0
 10
78.5315
 20
55.0594
 30
0.0
 11
64.5322
 21
55.0594
 31
0.0
  0
LINE
  8
0
 62
     0
 10
45.4822
 20
55.0594
 30
0.0
 11
45.4822
 21
54.0604
 31
0.0
  0
LINE
  8
0
 62
     0
 10
45.4822
 20
54.0604
 30
0.0
 11
44.6814
 21
54.0604
 31
0.0
  0
LINE
  8
0
 62
     0
 10
44.6814
 20
54.0604
 30
0.0
 11
44.6814
 21
50.9598
 31
0.0
  0
LINE
  8
0
 62
     0
 10
44.6814
 20
50.9598
 30
0.0
 11
45.4822
 21
50.9598
 31
0.0
  0
LINE
  8
0
 62
     0
 10
45.4822
 20
50.9598
 30
0.0
 11
45.4822
 21
45.1598
 31
0.0
  0
LINE
  8
0
 62
     0
 10
45.4822
 20
45.1598
 30
0.0
 11
44.6814
 21
45.1598
 31
0.0
  0
LINE
  8
0
 62
     0
 10
44.6814
 20
45.1598
 30
0.0
 11
44.6814
 21
42.0606
 31
0.0
  0
LINE
  8
0
 62
     0
 10
44.6814
 20
42.0606
 30
0.0
 11
45.4822
 21
42.0606
 31
0.0
  0
LINE
  8
0
 62
     0
 10
45.4822
 20
42.0606
 30
0.0
 11
45.4822
 21
41.0602
 31
0.0
  0
LINE
  8
0
 62
     0
 10
45.4822
 20
41.0602
 30
0.0
 11
59.4815
 21
41.0602
 31
0.0
  0
LINE
  8
0
 62
     0
 10
59.4815
 20
41.0602
 30
0.0
 11
59.4815
 21
42.0606
 31
0.0
  0
LINE
  8
0
 62
     0
 10
59.4815
 20
42.0606
 30
0.0
 11
60.2809
 21
42.0606
 31
0.0
  0
LINE
  8
0
 62
     0
 10
60.2809
 20
42.0606
 30
0.0
 11
60.2809
 21
45.1598
 31
0.0
  0
LINE
  8
0
 62
     0
 10
60.2809
 20
45.1598
 30
0.0
 11
59.4815
 21
45.1598
 31
0.0
  0
LINE
  8
0
 62
     0
 10
59.4815
 20
45.1598
 30
0.0
 11
59.4815
 21
50.9598
 31
0.0
  0
LINE
  8
0
 62
     0
 10
59.4815
 20
50.9598
 30
0.0
 11
60.2809
 21
50.9598
 31
0.0
  0
LINE
  8
0
 62
     0
 10
60.2809
 20
50.9598
 30
0.0
 11
60.2809
 21
54.0604
 31
0.0
  0
LINE
  8
0
 62
     0
 10
60.2809
 20
54.0604
 30
0.0
 11
59.4815
 21
54.0604
 31
0.0
  0
LINE
  8
0
 62
     0
 10
59.4815
 20
54.0604
 30
0.0
 11
59.4815
 21
55.0594
 31
0.0
  0
LINE
  8
0
 62
     0
 10
59.4815
 20
55.0594
 30
0.0
 11
45.4822
 21
55.0594
 31
0.0
  0
LINE
  8
0
 62
     0
 10
26.4322
 20
55.0594
 30
0.0
 11
26.4322
 21
54.0604
 31
0.0
  0
LINE
  8
0
 62
     0
 10
26.4322
 20
54.0604
 30
0.0
 11
25.6315
 21
54.0604
 31
0.0
  0
LINE
  8
0
 62
     0
 10
25.6315
 20
54.0604
 30
0.0
 11
25.6315
 21
50.9598
 31
0.0
  0
LINE
  8
0
 62
     0
 10
25.6315
 20
50.9598
 30
0.0
 11
26.4322
 21
50.9598
 31
0.0
  0
LINE
  8
0
 62
     0
 10
26.4322
 20
50.9598
 30
0.0
 11
26.4322
 21
45.1598
 31
0.0
  0
LINE
  8
0
 62
     0
 10
26.4322
 20
45.1598
 30
0.0
 11
25.6315
 21
45.1598
 31
0.0
  0
LINE
  8
0
 62
     0
 10
25.6315
 20
45.1598
 30
0.0
 11
25.6315
 21
42.0606
 31
0.0
  0
LINE
  8
0
 62
     0
 10
25.6315
 20
42.0606
 30
0.0
 11
26.4322
 21
42.0606
 31
0.0
  0
LINE
  8
0
 62
     0
 10
26.4322
 20
42.0606
 30
0.0
 11
26.4322
 21
41.0602
 31
0.0
  0
LINE
  8
0
 62
     0
 10
26.4322
 20
41.0602
 30
0.0
 11
40.4315
 21
41.0602
 31
0.0
  0
LINE
  8
0
 62
     0
 10
40.4315
 20
41.0602
 30
0.0
 11
40.4315
 21
42.0606
 31
0.0
  0
LINE
  8
0
 62
     0
 10
40.4315
 20
42.0606
 30
0.0
 11
41.2309
 21
42.0606
 31
0.0
  0
LINE
  8
0
 62
     0
 10
41.2309
 20
42.0606
 30
0.0
 11
41.2309
 21
45.1598
 31
0.0
  0
LINE
  8
0
 62
     0
 10
41.2309
 20
45.1598
 30
0.0
 11
40.4315
 21
45.1598
 31
0.0
  0
LINE
  8
0
 62
     0
 10
40.4315
 20
45.1598
 30
0.0
 11
40.4315
 21
50.9598
 31
0.0
  0
LINE
  8
0
 62
     0
 10
40.4315
 20
50.9598
 30
0.0
 11
41.2309
 21
50.9598
 31
0.0
  0
LINE
  8
0
 62
     0
 10
41.2309
 20
50.9598
 30
0.0
 11
41.2309
 21
54.0604
 31
0.0
  0
LINE
  8
0
 62
     0
 10
41.2309
 20
54.0604
 30
0.0
 11
40.4315
 21
54.0604
 31
0.0
  0
LINE
  8
0
 62
     0
 10
40.4315
 20
54.0604
 30
0.0
 11
40.4315
 21
55.0594
 31
0.0
  0
LINE
  8
0
 62
     0
 10
40.4315
 20
55.0594
 30
0.0
 11
26.4322
 21
55.0594
 31
0.0
  0
LINE
  8
0
 62
     0
 10
5.00091
 20
55.0594
 30
0.0
 11
5.00091
 21
54.0604
 31
0.0
  0
LINE
  8
0
 62
     0
 10
5.00091
 20
54.0604
 30
0.0
 11
4.20028
 21
54.0604
 31
0.0
  0
LINE
  8
0
 62
     0
 10
4.20028
 20
54.0604
 30
0.0
 11
4.20028
 21
50.9598
 31
0.0
  0
LINE
  8
0
 62
     0
 10
4.20028
 20
50.9598
 30
0.0
 11
5.00091
 21
50.9598
 31
0.0
  0
LINE
  8
0
 62
     0
 10
5.00091
 20
50.9598
 30
0.0
 11
5.00091
 21
45.1598
 31
0.0
  0
LINE
  8
0
 62
     0
 10
5.00091
 20
45.1598
 30
0.0
 11
4.20028
 21
45.1598
 31
0.0
  0
LINE
  8
0
 62
     0
 10
4.20028
 20
45.1598
 30
0.0
 11
4.20028
 21
42.0606
 31
0.0
  0
LINE
  8
0
 62
     0
 10
4.20028
 20
42.0606
 30
0.0
 11
5.00091
 21
42.0606
 31
0.0
  0
LINE
  8
0
 62
     0
 10
5.00091
 20
42.0606
 30
0.0
 11
5.00091
 21
41.0602
 31
0.0
  0
LINE
  8
0
 62
     0
 10
5.00091
 20
41.0602
 30
0.0
 11
19.0004
 21
41.0602
 31
0.0
  0
LINE
  8
0
 62
     0
 10
19.0004
 20
41.0602
 30
0.0
 11
19.0004
 21
42.0606
 31
0.0
  0
LINE
  8
0
 62
     0
 10
19.0004
 20
42.0606
 30
0.0
 11
19.801
 21
42.0606
 31
0.0
  0
LINE
  8
0
 62
     0
 10
19.801
 20
42.0606
 30
0.0
 11
19.801
 21
45.1598
 31
0.0
  0
LINE
  8
0
 62
     0
 10
19.801
 20
45.1598
 30
0.0
 11
19.0004
 21
45.1598
 31
0.0
  0
LINE
  8
0
 62
     0
 10
19.0004
 20
45.1598
 30
0.0
 11
19.0004
 21
50.9598
 31
0.0
  0
LINE
  8
0
 62
     0
 10
19.0004
 20
50.9598
 30
0.0
 11
19.801
 21
50.9598
 31
0.0
  0
LINE
  8
0
 62
     0
 10
19.801
 20
50.9598
 30
0.0
 11
19.801
 21
54.0604
 31
0.0
  0
LINE
  8
0
 62
     0
 10
19.801
 20
54.0604
 30
0.0
 11
19.0004
 21
54.0604
 31
0.0
  0
LINE
  8
0
 62
     0
 10
19.0004
 20
54.0604
 30
0.0
 11
19.0004
 21
55.0594
 31
0.0
  0
LINE
  8
0
 62
     0
 10
19.0004
 20
55.0594
 30
0.0
 11
5.00091
 21
55.0594
 31
0.0
  0
LINE
  8
0
 62
     0
 10
250.27
 20
74.1094
 30
0.0
 11
250.27
 21
73.1104
 31
0.0
  0
LINE
  8
0
 62
     0
 10
250.27
 20
73.1104
 30
0.0
 11
249.469
 21
73.1104
 31
0.0
  0
LINE
  8
0
 62
     0
 10
249.469
 20
73.1104
 30
0.0
 11
249.469
 21
70.0098
 31
0.0
  0
LINE
  8
0
 62
     0
 10
249.469
 20
70.0098
 30
0.0
 11
250.27
 21
70.0098
 31
0.0
  0
LINE
  8
0
 62
     0
 10
250.27
 20
70.0098
 30
0.0
 11
250.27
 21
64.2098
 31
0.0
  0
LINE
  8
0
 62
     0
 10
250.27
 20
64.2098
 30
0.0
 11
249.469
 21
64.2098
 31
0.0
  0
LINE
  8
0
 62
     0
 10
249.469
 20
64.2098
 30
0.0
 11
249.469
 21
61.1106
 31
0.0
  0
LINE
  8
0
 62
     0
 10
249.469
 20
61.1106
 30
0.0
 11
250.27
 21
61.1106
 31
0.0
  0
LINE
  8
0
 62
     0
 10
250.27
 20
61.1106
 30
0.0
 11
250.27
 21
60.1102
 31
0.0
  0
LINE
  8
0
 62
     0
 10
250.27
 20
60.1102
 30
0.0
 11
264.269
 21
60.1102
 31
0.0
  0
LINE
  8
0
 62
     0
 10
264.269
 20
60.1102
 30
0.0
 11
264.269
 21
61.1106
 31
0.0
  0
LINE
  8
0
 62
     0
 10
264.269
 20
61.1106
 30
0.0
 11
265.07
 21
61.1106
 31
0.0
  0
LINE
  8
0
 62
     0
 10
265.07
 20
61.1106
 30
0.0
 11
265.07
 21
64.2098
 31
0.0
  0
LINE
  8
0
 62
     0
 10
265.07
 20
64.2098
 30
0.0
 11
264.269
 21
64.2098
 31
0.0
  0
LINE
  8
0
 62
     0
 10
264.269
 20
64.2098
 30
0.0
 11
264.269
 21
70.0098
 31
0.0
  0
LINE
  8
0
 62
     0
 10
264.269
 20
70.0098
 30
0.0
 11
265.07
 21
70.0098
 31
0.0
  0
LINE
  8
0
 62
     0
 10
265.07
 20
70.0098
 30
0.0
 11
265.07
 21
73.1104
 31
0.0
  0
LINE
  8
0
 62
     0
 10
265.07
 20
73.1104
 30
0.0
 11
264.269
 21
73.1104
 31
0.0
  0
LINE
  8
0
 62
     0
 10
264.269
 20
73.1104
 30
0.0
 11
264.269
 21
74.1094
 31
0.0
  0
LINE
  8
0
 62
     0
 10
264.269
 20
74.1094
 30
0.0
 11
250.27
 21
74.1094
 31
0.0
  0
LINE
  8
0
 62
     0
 10
231.22
 20
74.1094
 30
0.0
 11
231.22
 21
73.1104
 31
0.0
  0
LINE
  8
0
 62
     0
 10
231.22
 20
73.1104
 30
0.0
 11
230.419
 21
73.1104
 31
0.0
  0
LINE
  8
0
 62
     0
 10
230.419
 20
73.1104
 30
0.0
 11
230.419
 21
70.0098
 31
0.0
  0
LINE
  8
0
 62
     0
 10
230.419
 20
70.0098
 30
0.0
 11
231.22
 21
70.0098
 31
0.0
  0
LINE
  8
0
 62
     0
 10
231.22
 20
70.0098
 30
0.0
 11
231.22
 21
64.2098
 31
0.0
  0
LINE
  8
0
 62
     0
 10
231.22
 20
64.2098
 30
0.0
 11
230.419
 21
64.2098
 31
0.0
  0
LINE
  8
0
 62
     0
 10
230.419
 20
64.2098
 30
0.0
 11
230.419
 21
61.1106
 31
0.0
  0
LINE
  8
0
 62
     0
 10
230.419
 20
61.1106
 30
0.0
 11
231.22
 21
61.1106
 31
0.0
  0
LINE
  8
0
 62
     0
 10
231.22
 20
61.1106
 30
0.0
 11
231.22
 21
60.1102
 31
0.0
  0
LINE
  8
0
 62
     0
 10
231.22
 20
60.1102
 30
0.0
 11
245.219
 21
60.1102
 31
0.0
  0
LINE
  8
0
 62
     0
 10
245.219
 20
60.1102
 30
0.0
 11
245.219
 21
61.1106
 31
0.0
  0
LINE
  8
0
 62
     0
 10
245.219
 20
61.1106
 30
0.0
 11
246.02
 21
61.1106
 31
0.0
  0
LINE
  8
0
 62
     0
 10
246.02
 20
61.1106
 30
0.0
 11
246.02
 21
64.2098
 31
0.0
  0
LINE
  8
0
 62
     0
 10
246.02
 20
64.2098
 30
0.0
 11
245.219
 21
64.2098
 31
0.0
  0
LINE
  8
0
 62
     0
 10
245.219
 20
64.2098
 30
0.0
 11
245.219
 21
70.0098
 31
0.0
  0
LINE
  8
0
 62
     0
 10
245.219
 20
70.0098
 30
0.0
 11
246.02
 21
70.0098
 31
0.0
  0
LINE
  8
0
 62
     0
 10
246.02
 20
70.0098
 30
0.0
 11
246.02
 21
73.1104
 31
0.0
  0
LINE
  8
0
 62
     0
 10
246.02
 20
73.1104
 30
0.0
 11
245.219
 21
73.1104
 31
0.0
  0
LINE
  8
0
 62
     0
 10
245.219
 20
73.1104
 30
0.0
 11
245.219
 21
74.1094
 31
0.0
  0
LINE
  8
0
 62
     0
 10
245.219
 20
74.1094
 30
0.0
 11
231.22
 21
74.1094
 31
0.0
  0
LINE
  8
0
 62
     0
 10
212.17
 20
74.1094
 30
0.0
 11
212.17
 21
73.1104
 31
0.0
  0
LINE
  8
0
 62
     0
 10
212.17
 20
73.1104
 30
0.0
 11
211.369
 21
73.1104
 31
0.0
  0
LINE
  8
0
 62
     0
 10
211.369
 20
73.1104
 30
0.0
 11
211.369
 21
70.0098
 31
0.0
  0
LINE
  8
0
 62
     0
 10
211.369
 20
70.0098
 30
0.0
 11
212.17
 21
70.0098
 31
0.0
  0
LINE
  8
0
 62
     0
 10
212.17
 20
70.0098
 30
0.0
 11
212.17
 21
64.2098
 31
0.0
  0
LINE
  8
0
 62
     0
 10
212.17
 20
64.2098
 30
0.0
 11
211.369
 21
64.2098
 31
0.0
  0
LINE
  8
0
 62
     0
 10
211.369
 20
64.2098
 30
0.0
 11
211.369
 21
61.1106
 31
0.0
  0
LINE
  8
0
 62
     0
 10
211.369
 20
61.1106
 30
0.0
 11
212.17
 21
61.1106
 31
0.0
  0
LINE
  8
0
 62
     0
 10
212.17
 20
61.1106
 30
0.0
 11
212.17
 21
60.1102
 31
0.0
  0
LINE
  8
0
 62
     0
 10
212.17
 20
60.1102
 30
0.0
 11
226.169
 21
60.1102
 31
0.0
  0
LINE
  8
0
 62
     0
 10
226.169
 20
60.1102
 30
0.0
 11
226.169
 21
61.1106
 31
0.0
  0
LINE
  8
0
 62
     0
 10
226.169
 20
61.1106
 30
0.0
 11
226.97
 21
61.1106
 31
0.0
  0
LINE
  8
0
 62
     0
 10
226.97
 20
61.1106
 30
0.0
 11
226.97
 21
64.2098
 31
0.0
  0
LINE
  8
0
 62
     0
 10
226.97
 20
64.2098
 30
0.0
 11
226.169
 21
64.2098
 31
0.0
  0
LINE
  8
0
 62
     0
 10
226.169
 20
64.2098
 30
0.0
 11
226.169
 21
70.0098
 31
0.0
  0
LINE
  8
0
 62
     0
 10
226.169
 20
70.0098
 30
0.0
 11
226.97
 21
70.0098
 31
0.0
  0
LINE
  8
0
 62
     0
 10
226.97
 20
70.0098
 30
0.0
 11
226.97
 21
73.1104
 31
0.0
  0
LINE
  8
0
 62
     0
 10
226.97
 20
73.1104
 30
0.0
 11
226.169
 21
73.1104
 31
0.0
  0
LINE
  8
0
 62
     0
 10
226.169
 20
73.1104
 30
0.0
 11
226.169
 21
74.1094
 31
0.0
  0
LINE
  8
0
 62
     0
 10
226.169
 20
74.1094
 30
0.0
 11
212.17
 21
74.1094
 31
0.0
  0
LINE
  8
0
 62
     0
 10
193.12
 20
74.1094
 30
0.0
 11
193.12
 21
73.1104
 31
0.0
  0
LINE
  8
0
 62
     0
 10
193.12
 20
73.1104
 30
0.0
 11
192.319
 21
73.1104
 31
0.0
  0
LINE
  8
0
 62
     0
 10
192.319
 20
73.1104
 30
0.0
 11
192.319
 21
70.0098
 31
0.0
  0
LINE
  8
0
 62
     0
 10
192.319
 20
70.0098
 30
0.0
 11
193.12
 21
70.0098
 31
0.0
  0
LINE
  8
0
 62
     0
 10
193.12
 20
70.0098
 30
0.0
 11
193.12
 21
64.2098
 31
0.0
  0
LINE
  8
0
 62
     0
 10
193.12
 20
64.2098
 30
0.0
 11
192.319
 21
64.2098
 31
0.0
  0
LINE
  8
0
 62
     0
 10
192.319
 20
64.2098
 30
0.0
 11
192.319
 21
61.1106
 31
0.0
  0
LINE
  8
0
 62
     0
 10
192.319
 20
61.1106
 30
0.0
 11
193.12
 21
61.1106
 31
0.0
  0
LINE
  8
0
 62
     0
 10
193.12
 20
61.1106
 30
0.0
 11
193.12
 21
60.1102
 31
0.0
  0
LINE
  8
0
 62
     0
 10
193.12
 20
60.1102
 30
0.0
 11
207.119
 21
60.1102
 31
0.0
  0
LINE
  8
0
 62
     0
 10
207.119
 20
60.1102
 30
0.0
 11
207.119
 21
61.1106
 31
0.0
  0
LINE
  8
0
 62
     0
 10
207.119
 20
61.1106
 30
0.0
 11
207.92
 21
61.1106
 31
0.0
  0
LINE
  8
0
 62
     0
 10
207.92
 20
61.1106
 30
0.0
 11
207.92
 21
64.2098
 31
0.0
  0
LINE
  8
0
 62
     0
 10
207.92
 20
64.2098
 30
0.0
 11
207.119
 21
64.2098
 31
0.0
  0
LINE
  8
0
 62
     0
 10
207.119
 20
64.2098
 30
0.0
 11
207.119
 21
70.0098
 31
0.0
  0
LINE
  8
0
 62
     0
 10
207.119
 20
70.0098
 30
0.0
 11
207.92
 21
70.0098
 31
0.0
  0
LINE
  8
0
 62
     0
 10
207.92
 20
70.0098
 30
0.0
 11
207.92
 21
73.1104
 31
0.0
  0
LINE
  8
0
 62
     0
 10
207.92
 20
73.1104
 30
0.0
 11
207.119
 21
73.1104
 31
0.0
  0
LINE
  8
0
 62
     0
 10
207.119
 20
73.1104
 30
0.0
 11
207.119
 21
74.1094
 31
0.0
  0
LINE
  8
0
 62
     0
 10
207.119
 20
74.1094
 30
0.0
 11
193.12
 21
74.1094
 31
0.0
  0
LINE
  8
0
 62
     0
 10
174.07
 20
74.1094
 30
0.0
 11
174.07
 21
73.1104
 31
0.0
  0
LINE
  8
0
 62
     0
 10
174.07
 20
73.1104
 30
0.0
 11
173.269
 21
73.1104
 31
0.0
  0
LINE
  8
0
 62
     0
 10
173.269
 20
73.1104
 30
0.0
 11
173.269
 21
70.0098
 31
0.0
  0
LINE
  8
0
 62
     0
 10
173.269
 20
70.0098
 30
0.0
 11
174.07
 21
70.0098
 31
0.0
  0
LINE
  8
0
 62
     0
 10
174.07
 20
70.0098
 30
0.0
 11
174.07
 21
64.2098
 31
0.0
  0
LINE
  8
0
 62
     0
 10
174.07
 20
64.2098
 30
0.0
 11
173.269
 21
64.2098
 31
0.0
  0
LINE
  8
0
 62
     0
 10
173.269
 20
64.2098
 30
0.0
 11
173.269
 21
61.1106
 31
0.0
  0
LINE
  8
0
 62
     0
 10
173.269
 20
61.1106
 30
0.0
 11
174.07
 21
61.1106
 31
0.0
  0
LINE
  8
0
 62
     0
 10
174.07
 20
61.1106
 30
0.0
 11
174.07
 21
60.1102
 31
0.0
  0
LINE
  8
0
 62
     0
 10
174.07
 20
60.1102
 30
0.0
 11
188.069
 21
60.1102
 31
0.0
  0
LINE
  8
0
 62
     0
 10
188.069
 20
60.1102
 30
0.0
 11
188.069
 21
61.1106
 31
0.0
  0
LINE
  8
0
 62
     0
 10
188.069
 20
61.1106
 30
0.0
 11
188.87
 21
61.1106
 31
0.0
  0
LINE
  8
0
 62
     0
 10
188.87
 20
61.1106
 30
0.0
 11
188.87
 21
64.2098
 31
0.0
  0
LINE
  8
0
 62
     0
 10
188.87
 20
64.2098
 30
0.0
 11
188.069
 21
64.2098
 31
0.0
  0
LINE
  8
0
 62
     0
 10
188.069
 20
64.2098
 30
0.0
 11
188.069
 21
70.0098
 31
0.0
  0
LINE
  8
0
 62
     0
 10
188.069
 20
70.0098
 30
0.0
 11
188.87
 21
70.0098
 31
0.0
  0
LINE
  8
0
 62
     0
 10
188.87
 20
70.0098
 30
0.0
 11
188.87
 21
73.1104
 31
0.0
  0
LINE
  8
0
 62
     0
 10
188.87
 20
73.1104
 30
0.0
 11
188.069
 21
73.1104
 31
0.0
  0
LINE
  8
0
 62
     0
 10
188.069
 20
73.1104
 30
0.0
 11
188.069
 21
74.1094
 31
0.0
  0
LINE
  8
0
 62
     0
 10
188.069
 20
74.1094
 30
0.0
 11
174.07
 21
74.1094
 31
0.0
  0
LINE
  8
0
 62
     0
 10
155.02
 20
74.1094
 30
0.0
 11
155.02
 21
73.1104
 31
0.0
  0
LINE
  8
0
 62
     0
 10
155.02
 20
73.1104
 30
0.0
 11
154.219
 21
73.1104
 31
0.0
  0
LINE
  8
0
 62
     0
 10
154.219
 20
73.1104
 30
0.0
 11
154.219
 21
70.0098
 31
0.0
  0
LINE
  8
0
 62
     0
 10
154.219
 20
70.0098
 30
0.0
 11
155.02
 21
70.0098
 31
0.0
  0
LINE
  8
0
 62
     0
 10
155.02
 20
70.0098
 30
0.0
 11
155.02
 21
64.2098
 31
0.0
  0
LINE
  8
0
 62
     0
 10
155.02
 20
64.2098
 30
0.0
 11
154.219
 21
64.2098
 31
0.0
  0
LINE
  8
0
 62
     0
 10
154.219
 20
64.2098
 30
0.0
 11
154.219
 21
61.1106
 31
0.0
  0
LINE
  8
0
 62
     0
 10
154.219
 20
61.1106
 30
0.0
 11
155.02
 21
61.1106
 31
0.0
  0
LINE
  8
0
 62
     0
 10
155.02
 20
61.1106
 30
0.0
 11
155.02
 21
60.1102
 31
0.0
  0
LINE
  8
0
 62
     0
 10
155.02
 20
60.1102
 30
0.0
 11
169.019
 21
60.1102
 31
0.0
  0
LINE
  8
0
 62
     0
 10
169.019
 20
60.1102
 30
0.0
 11
169.019
 21
61.1106
 31
0.0
  0
LINE
  8
0
 62
     0
 10
169.019
 20
61.1106
 30
0.0
 11
169.82
 21
61.1106
 31
0.0
  0
LINE
  8
0
 62
     0
 10
169.82
 20
61.1106
 30
0.0
 11
169.82
 21
64.2098
 31
0.0
  0
LINE
  8
0
 62
     0
 10
169.82
 20
64.2098
 30
0.0
 11
169.019
 21
64.2098
 31
0.0
  0
LINE
  8
0
 62
     0
 10
169.019
 20
64.2098
 30
0.0
 11
169.019
 21
70.0098
 31
0.0
  0
LINE
  8
0
 62
     0
 10
169.019
 20
70.0098
 30
0.0
 11
169.82
 21
70.0098
 31
0.0
  0
LINE
  8
0
 62
     0
 10
169.82
 20
70.0098
 30
0.0
 11
169.82
 21
73.1104
 31
0.0
  0
LINE
  8
0
 62
     0
 10
169.82
 20
73.1104
 30
0.0
 11
169.019
 21
73.1104
 31
0.0
  0
LINE
  8
0
 62
     0
 10
169.019
 20
73.1104
 30
0.0
 11
169.019
 21
74.1094
 31
0.0
  0
LINE
  8
0
 62
     0
 10
169.019
 20
74.1094
 30
0.0
 11
155.02
 21
74.1094
 31
0.0
  0
LINE
  8
0
 62
     0
 10
135.97
 20
74.1094
 30
0.0
 11
135.97
 21
73.1104
 31
0.0
  0
LINE
  8
0
 62
     0
 10
135.97
 20
73.1104
 30
0.0
 11
135.169
 21
73.1104
 31
0.0
  0
LINE
  8
0
 62
     0
 10
135.169
 20
73.1104
 30
0.0
 11
135.169
 21
70.0098
 31
0.0
  0
LINE
  8
0
 62
     0
 10
135.169
 20
70.0098
 30
0.0
 11
135.97
 21
70.0098
 31
0.0
  0
LINE
  8
0
 62
     0
 10
135.97
 20
70.0098
 30
0.0
 11
135.97
 21
64.2098
 31
0.0
  0
LINE
  8
0
 62
     0
 10
135.97
 20
64.2098
 30
0.0
 11
135.169
 21
64.2098
 31
0.0
  0
LINE
  8
0
 62
     0
 10
135.169
 20
64.2098
 30
0.0
 11
135.169
 21
61.1106
 31
0.0
  0
LINE
  8
0
 62
     0
 10
135.169
 20
61.1106
 30
0.0
 11
135.97
 21
61.1106
 31
0.0
  0
LINE
  8
0
 62
     0
 10
135.97
 20
61.1106
 30
0.0
 11
135.97
 21
60.1102
 31
0.0
  0
LINE
  8
0
 62
     0
 10
135.97
 20
60.1102
 30
0.0
 11
149.969
 21
60.1102
 31
0.0
  0
LINE
  8
0
 62
     0
 10
149.969
 20
60.1102
 30
0.0
 11
149.969
 21
61.1106
 31
0.0
  0
LINE
  8
0
 62
     0
 10
149.969
 20
61.1106
 30
0.0
 11
150.77
 21
61.1106
 31
0.0
  0
LINE
  8
0
 62
     0
 10
150.77
 20
61.1106
 30
0.0
 11
150.77
 21
64.2098
 31
0.0
  0
LINE
  8
0
 62
     0
 10
150.77
 20
64.2098
 30
0.0
 11
149.969
 21
64.2098
 31
0.0
  0
LINE
  8
0
 62
     0
 10
149.969
 20
64.2098
 30
0.0
 11
149.969
 21
70.0098
 31
0.0
  0
LINE
  8
0
 62
     0
 10
149.969
 20
70.0098
 30
0.0
 11
150.77
 21
70.0098
 31
0.0
  0
LINE
  8
0
 62
     0
 10
150.77
 20
70.0098
 30
0.0
 11
150.77
 21
73.1104
 31
0.0
  0
LINE
  8
0
 62
     0
 10
150.77
 20
73.1104
 30
0.0
 11
149.969
 21
73.1104
 31
0.0
  0
LINE
  8
0
 62
     0
 10
149.969
 20
73.1104
 30
0.0
 11
149.969
 21
74.1094
 31
0.0
  0
LINE
  8
0
 62
     0
 10
149.969
 20
74.1094
 30
0.0
 11
135.97
 21
74.1094
 31
0.0
  0
LINE
  8
0
 62
     0
 10
116.918
 20
74.1094
 30
0.0
 11
116.918
 21
73.1104
 31
0.0
  0
LINE
  8
0
 62
     0
 10
116.918
 20
73.1104
 30
0.0
 11
116.119
 21
73.1104
 31
0.0
  0
LINE
  8
0
 62
     0
 10
116.119
 20
73.1104
 30
0.0
 11
116.119
 21
70.0098
 31
0.0
  0
LINE
  8
0
 62
     0
 10
116.119
 20
70.0098
 30
0.0
 11
116.918
 21
70.0098
 31
0.0
  0
LINE
  8
0
 62
     0
 10
116.918
 20
70.0098
 30
0.0
 11
116.918
 21
64.2098
 31
0.0
  0
LINE
  8
0
 62
     0
 10
116.918
 20
64.2098
 30
0.0
 11
116.119
 21
64.2098
 31
0.0
  0
LINE
  8
0
 62
     0
 10
116.119
 20
64.2098
 30
0.0
 11
116.119
 21
61.1106
 31
0.0
  0
LINE
  8
0
 62
     0
 10
116.119
 20
61.1106
 30
0.0
 11
116.918
 21
61.1106
 31
0.0
  0
LINE
  8
0
 62
     0
 10
116.918
 20
61.1106
 30
0.0
 11
116.918
 21
60.1102
 31
0.0
  0
LINE
  8
0
 62
     0
 10
116.918
 20
60.1102
 30
0.0
 11
130.919
 21
60.1102
 31
0.0
  0
LINE
  8
0
 62
     0
 10
130.919
 20
60.1102
 30
0.0
 11
130.919
 21
61.1106
 31
0.0
  0
LINE
  8
0
 62
     0
 10
130.919
 20
61.1106
 30
0.0
 11
131.72
 21
61.1106
 31
0.0
  0
LINE
  8
0
 62
     0
 10
131.72
 20
61.1106
 30
0.0
 11
131.72
 21
64.2098
 31
0.0
  0
LINE
  8
0
 62
     0
 10
131.72
 20
64.2098
 30
0.0
 11
130.919
 21
64.2098
 31
0.0
  0
LINE
  8
0
 62
     0
 10
130.919
 20
64.2098
 30
0.0
 11
130.919
 21
70.0098
 31
0.0
  0
LINE
  8
0
 62
     0
 10
130.919
 20
70.0098
 30
0.0
 11
131.72
 21
70.0098
 31
0.0
  0
LINE
  8
0
 62
     0
 10
131.72
 20
70.0098
 30
0.0
 11
131.72
 21
73.1104
 31
0.0
  0
LINE
  8
0
 62
     0
 10
131.72
 20
73.1104
 30
0.0
 11
130.919
 21
73.1104
 31
0.0
  0
LINE
  8
0
 62
     0
 10
130.919
 20
73.1104
 30
0.0
 11
130.919
 21
74.1094
 31
0.0
  0
LINE
  8
0
 62
     0
 10
130.919
 20
74.1094
 30
0.0
 11
116.918
 21
74.1094
 31
0.0
  0
LINE
  8
0
 62
     0
 10
97.8683
 20
74.1094
 30
0.0
 11
97.8683
 21
73.1104
 31
0.0
  0
LINE
  8
0
 62
     0
 10
97.8683
 20
73.1104
 30
0.0
 11
97.0689
 21
73.1104
 31
0.0
  0
LINE
  8
0
 62
     0
 10
97.0689
 20
73.1104
 30
0.0
 11
97.0689
 21
70.0098
 31
0.0
  0
LINE
  8
0
 62
     0
 10
97.0689
 20
70.0098
 30
0.0
 11
97.8683
 21
70.0098
 31
0.0
  0
LINE
  8
0
 62
     0
 10
97.8683
 20
70.0098
 30
0.0
 11
97.8683
 21
64.2098
 31
0.0
  0
LINE
  8
0
 62
     0
 10
97.8683
 20
64.2098
 30
0.0
 11
97.0689
 21
64.2098
 31
0.0
  0
LINE
  8
0
 62
     0
 10
97.0689
 20
64.2098
 30
0.0
 11
97.0689
 21
61.1106
 31
0.0
  0
LINE
  8
0
 62
     0
 10
97.0689
 20
61.1106
 30
0.0
 11
97.8683
 21
61.1106
 31
0.0
  0
LINE
  8
0
 62
     0
 10
97.8683
 20
61.1106
 30
0.0
 11
97.8683
 21
60.1102
 31
0.0
  0
LINE
  8
0
 62
     0
 10
97.8683
 20
60.1102
 30
0.0
 11
111.869
 21
60.1102
 31
0.0
  0
LINE
  8
0
 62
     0
 10
111.869
 20
60.1102
 30
0.0
 11
111.869
 21
61.1106
 31
0.0
  0
LINE
  8
0
 62
     0
 10
111.869
 20
61.1106
 30
0.0
 11
112.668
 21
61.1106
 31
0.0
  0
LINE
  8
0
 62
     0
 10
112.668
 20
61.1106
 30
0.0
 11
112.668
 21
64.2098
 31
0.0
  0
LINE
  8
0
 62
     0
 10
112.668
 20
64.2098
 30
0.0
 11
111.869
 21
64.2098
 31
0.0
  0
LINE
  8
0
 62
     0
 10
111.869
 20
64.2098
 30
0.0
 11
111.869
 21
70.0098
 31
0.0
  0
LINE
  8
0
 62
     0
 10
111.869
 20
70.0098
 30
0.0
 11
112.668
 21
70.0098
 31
0.0
  0
LINE
  8
0
 62
     0
 10
112.668
 20
70.0098
 30
0.0
 11
112.668
 21
73.1104
 31
0.0
  0
LINE
  8
0
 62
     0
 10
112.668
 20
73.1104
 30
0.0
 11
111.869
 21
73.1104
 31
0.0
  0
LINE
  8
0
 62
     0
 10
111.869
 20
73.1104
 30
0.0
 11
111.869
 21
74.1094
 31
0.0
  0
LINE
  8
0
 62
     0
 10
111.869
 20
74.1094
 30
0.0
 11
97.8683
 21
74.1094
 31
0.0
  0
LINE
  8
0
 62
     0
 10
78.8197
 20
74.1094
 30
0.0
 11
78.8197
 21
73.1104
 31
0.0
  0
LINE
  8
0
 62
     0
 10
78.8197
 20
73.1104
 30
0.0
 11
78.0189
 21
73.1104
 31
0.0
  0
LINE
  8
0
 62
     0
 10
78.0189
 20
73.1104
 30
0.0
 11
78.0189
 21
70.0098
 31
0.0
  0
LINE
  8
0
 62
     0
 10
78.0189
 20
70.0098
 30
0.0
 11
78.8197
 21
70.0098
 31
0.0
  0
LINE
  8
0
 62
     0
 10
78.8197
 20
70.0098
 30
0.0
 11
78.8197
 21
64.2098
 31
0.0
  0
LINE
  8
0
 62
     0
 10
78.8197
 20
64.2098
 30
0.0
 11
78.0189
 21
64.2098
 31
0.0
  0
LINE
  8
0
 62
     0
 10
78.0189
 20
64.2098
 30
0.0
 11
78.0189
 21
61.1106
 31
0.0
  0
LINE
  8
0
 62
     0
 10
78.0189
 20
61.1106
 30
0.0
 11
78.8197
 21
61.1106
 31
0.0
  0
LINE
  8
0
 62
     0
 10
78.8197
 20
61.1106
 30
0.0
 11
78.8197
 21
60.1102
 31
0.0
  0
LINE
  8
0
 62
     0
 10
78.8197
 20
60.1102
 30
0.0
 11
92.819
 21
60.1102
 31
0.0
  0
LINE
  8
0
 62
     0
 10
92.819
 20
60.1102
 30
0.0
 11
92.819
 21
61.1106
 31
0.0
  0
LINE
  8
0
 62
     0
 10
92.819
 20
61.1106
 30
0.0
 11
93.6184
 21
61.1106
 31
0.0
  0
LINE
  8
0
 62
     0
 10
93.6184
 20
61.1106
 30
0.0
 11
93.6184
 21
64.2098
 31
0.0
  0
LINE
  8
0
 62
     0
 10
93.6184
 20
64.2098
 30
0.0
 11
92.819
 21
64.2098
 31
0.0
  0
LINE
  8
0
 62
     0
 10
92.819
 20
64.2098
 30
0.0
 11
92.819
 21
70.0098
 31
0.0
  0
LINE
  8
0
 62
     0
 10
92.819
 20
70.0098
 30
0.0
 11
93.6184
 21
70.0098
 31
0.0
  0
LINE
  8
0
 62
     0
 10
93.6184
 20
70.0098
 30
0.0
 11
93.6184
 21
73.1104
 31
0.0
  0
LINE
  8
0
 62
     0
 10
93.6184
 20
73.1104
 30
0.0
 11
92.819
 21
73.1104
 31
0.0
  0
LINE
  8
0
 62
     0
 10
92.819
 20
73.1104
 30
0.0
 11
92.819
 21
74.1094
 31
0.0
  0
LINE
  8
0
 62
     0
 10
92.819
 20
74.1094
 30
0.0
 11
78.8197
 21
74.1094
 31
0.0
  0
LINE
  8
0
 62
     0
 10
59.7697
 20
74.1094
 30
0.0
 11
59.7697
 21
73.1104
 31
0.0
  0
LINE
  8
0
 62
     0
 10
59.7697
 20
73.1104
 30
0.0
 11
58.9689
 21
73.1104
 31
0.0
  0
LINE
  8
0
 62
     0
 10
58.9689
 20
73.1104
 30
0.0
 11
58.9689
 21
70.0098
 31
0.0
  0
LINE
  8
0
 62
     0
 10
58.9689
 20
70.0098
 30
0.0
 11
59.7697
 21
70.0098
 31
0.0
  0
LINE
  8
0
 62
     0
 10
59.7697
 20
70.0098
 30
0.0
 11
59.7697
 21
64.2098
 31
0.0
  0
LINE
  8
0
 62
     0
 10
59.7697
 20
64.2098
 30
0.0
 11
58.9689
 21
64.2098
 31
0.0
  0
LINE
  8
0
 62
     0
 10
58.9689
 20
64.2098
 30
0.0
 11
58.9689
 21
61.1106
 31
0.0
  0
LINE
  8
0
 62
     0
 10
58.9689
 20
61.1106
 30
0.0
 11
59.7697
 21
61.1106
 31
0.0
  0
LINE
  8
0
 62
     0
 10
59.7697
 20
61.1106
 30
0.0
 11
59.7697
 21
60.1102
 31
0.0
  0
LINE
  8
0
 62
     0
 10
59.7697
 20
60.1102
 30
0.0
 11
73.769
 21
60.1102
 31
0.0
  0
LINE
  8
0
 62
     0
 10
73.769
 20
60.1102
 30
0.0
 11
73.769
 21
61.1106
 31
0.0
  0
LINE
  8
0
 62
     0
 10
73.769
 20
61.1106
 30
0.0
 11
74.5698
 21
61.1106
 31
0.0
  0
LINE
  8
0
 62
     0
 10
74.5698
 20
61.1106
 30
0.0
 11
74.5698
 21
64.2098
 31
0.0
  0
LINE
  8
0
 62
     0
 10
74.5698
 20
64.2098
 30
0.0
 11
73.769
 21
64.2098
 31
0.0
  0
LINE
  8
0
 62
     0
 10
73.769
 20
64.2098
 30
0.0
 11
73.769
 21
70.0098
 31
0.0
  0
LINE
  8
0
 62
     0
 10
73.769
 20
70.0098
 30
0.0
 11
74.5698
 21
70.0098
 31
0.0
  0
LINE
  8
0
 62
     0
 10
74.5698
 20
70.0098
 30
0.0
 11
74.5698
 21
73.1104
 31
0.0
  0
LINE
  8
0
 62
     0
 10
74.5698
 20
73.1104
 30
0.0
 11
73.769
 21
73.1104
 31
0.0
  0
LINE
  8
0
 62
     0
 10
73.769
 20
73.1104
 30
0.0
 11
73.769
 21
74.1094
 31
0.0
  0
LINE
  8
0
 62
     0
 10
73.769
 20
74.1094
 30
0.0
 11
59.7697
 21
74.1094
 31
0.0
  0
LINE
  8
0
 62
     0
 10
40.7197
 20
74.1094
 30
0.0
 11
40.7197
 21
73.1104
 31
0.0
  0
LINE
  8
0
 62
     0
 10
40.7197
 20
73.1104
 30
0.0
 11
39.9189
 21
73.1104
 31
0.0
  0
LINE
  8
0
 62
     0
 10
39.9189
 20
73.1104
 30
0.0
 11
39.9189
 21
70.0098
 31
0.0
  0
LINE
  8
0
 62
     0
 10
39.9189
 20
70.0098
 30
0.0
 11
40.7197
 21
70.0098
 31
0.0
  0
LINE
  8
0
 62
     0
 10
40.7197
 20
70.0098
 30
0.0
 11
40.7197
 21
64.2098
 31
0.0
  0
LINE
  8
0
 62
     0
 10
40.7197
 20
64.2098
 30
0.0
 11
39.9189
 21
64.2098
 31
0.0
  0
LINE
  8
0
 62
     0
 10
39.9189
 20
64.2098
 30
0.0
 11
39.9189
 21
61.1106
 31
0.0
  0
LINE
  8
0
 62
     0
 10
39.9189
 20
61.1106
 30
0.0
 11
40.7197
 21
61.1106
 31
0.0
  0
LINE
  8
0
 62
     0
 10
40.7197
 20
61.1106
 30
0.0
 11
40.7197
 21
60.1102
 31
0.0
  0
LINE
  8
0
 62
     0
 10
40.7197
 20
60.1102
 30
0.0
 11
54.719
 21
60.1102
 31
0.0
  0
LINE
  8
0
 62
     0
 10
54.719
 20
60.1102
 30
0.0
 11
54.719
 21
61.1106
 31
0.0
  0
LINE
  8
0
 62
     0
 10
54.719
 20
61.1106
 30
0.0
 11
55.5198
 21
61.1106
 31
0.0
  0
LINE
  8
0
 62
     0
 10
55.5198
 20
61.1106
 30
0.0
 11
55.5198
 21
64.2098
 31
0.0
  0
LINE
  8
0
 62
     0
 10
55.5198
 20
64.2098
 30
0.0
 11
54.719
 21
64.2098
 31
0.0
  0
LINE
  8
0
 62
     0
 10
54.719
 20
64.2098
 30
0.0
 11
54.719
 21
70.0098
 31
0.0
  0
LINE
  8
0
 62
     0
 10
54.719
 20
70.0098
 30
0.0
 11
55.5198
 21
70.0098
 31
0.0
  0
LINE
  8
0
 62
     0
 10
55.5198
 20
70.0098
 30
0.0
 11
55.5198
 21
73.1104
 31
0.0
  0
LINE
  8
0
 62
     0
 10
55.5198
 20
73.1104
 30
0.0
 11
54.719
 21
73.1104
 31
0.0
  0
LINE
  8
0
 62
     0
 10
54.719
 20
73.1104
 30
0.0
 11
54.719
 21
74.1094
 31
0.0
  0
LINE
  8
0
 62
     0
 10
54.719
 20
74.1094
 30
0.0
 11
40.7197
 21
74.1094
 31
0.0
  0
LINE
  8
0
 62
     0
 10
21.6697
 20
74.1094
 30
0.0
 11
21.6697
 21
73.1104
 31
0.0
  0
LINE
  8
0
 62
     0
 10
21.6697
 20
73.1104
 30
0.0
 11
20.869
 21
73.1104
 31
0.0
  0
LINE
  8
0
 62
     0
 10
20.869
 20
73.1104
 30
0.0
 11
20.869
 21
70.0098
 31
0.0
  0
LINE
  8
0
 62
     0
 10
20.869
 20
70.0098
 30
0.0
 11
21.6697
 21
70.0098
 31
0.0
  0
LINE
  8
0
 62
     0
 10
21.6697
 20
70.0098
 30
0.0
 11
21.6697
 21
64.2098
 31
0.0
  0
LINE
  8
0
 62
     0
 10
21.6697
 20
64.2098
 30
0.0
 11
20.869
 21
64.2098
 31
0.0
  0
LINE
  8
0
 62
     0
 10
20.869
 20
64.2098
 30
0.0
 11
20.869
 21
61.1106
 31
0.0
  0
LINE
  8
0
 62
     0
 10
20.869
 20
61.1106
 30
0.0
 11
21.6697
 21
61.1106
 31
0.0
  0
LINE
  8
0
 62
     0
 10
21.6697
 20
61.1106
 30
0.0
 11
21.6697
 21
60.1102
 31
0.0
  0
LINE
  8
0
 62
     0
 10
21.6697
 20
60.1102
 30
0.0
 11
35.669
 21
60.1102
 31
0.0
  0
LINE
  8
0
 62
     0
 10
35.669
 20
60.1102
 30
0.0
 11
35.669
 21
61.1106
 31
0.0
  0
LINE
  8
0
 62
     0
 10
35.669
 20
61.1106
 30
0.0
 11
36.4698
 21
61.1106
 31
0.0
  0
LINE
  8
0
 62
     0
 10
36.4698
 20
61.1106
 30
0.0
 11
36.4698
 21
64.2098
 31
0.0
  0
LINE
  8
0
 62
     0
 10
36.4698
 20
64.2098
 30
0.0
 11
35.669
 21
64.2098
 31
0.0
  0
LINE
  8
0
 62
     0
 10
35.669
 20
64.2098
 30
0.0
 11
35.669
 21
70.0098
 31
0.0
  0
LINE
  8
0
 62
     0
 10
35.669
 20
70.0098
 30
0.0
 11
36.4698
 21
70.0098
 31
0.0
  0
LINE
  8
0
 62
     0
 10
36.4698
 20
70.0098
 30
0.0
 11
36.4698
 21
73.1104
 31
0.0
  0
LINE
  8
0
 62
     0
 10
36.4698
 20
73.1104
 30
0.0
 11
35.669
 21
73.1104
 31
0.0
  0
LINE
  8
0
 62
     0
 10
35.669
 20
73.1104
 30
0.0
 11
35.669
 21
74.1094
 31
0.0
  0
LINE
  8
0
 62
     0
 10
35.669
 20
74.1094
 30
0.0
 11
21.6697
 21
74.1094
 31
0.0
  0
LINE
  8
0
 62
     0
 10
2.61965
 20
74.1094
 30
0.0
 11
2.61965
 21
73.1104
 31
0.0
  0
LINE
  8
0
 62
     0
 10
2.61965
 20
73.1104
 30
0.0
 11
1.81901
 21
73.1104
 31
0.0
  0
LINE
  8
0
 62
     0
 10
1.81901
 20
73.1104
 30
0.0
 11
1.81901
 21
70.0098
 31
0.0
  0
LINE
  8
0
 62
     0
 10
1.81901
 20
70.0098
 30
0.0
 11
2.61965
 21
70.0098
 31
0.0
  0
LINE
  8
0
 62
     0
 10
2.61965
 20
70.0098
 30
0.0
 11
2.61965
 21
64.2098
 31
0.0
  0
LINE
  8
0
 62
     0
 10
2.61965
 20
64.2098
 30
0.0
 11
1.81901
 21
64.2098
 31
0.0
  0
LINE
  8
0
 62
     0
 10
1.81901
 20
64.2098
 30
0.0
 11
1.81901
 21
61.1106
 31
0.0
  0
LINE
  8
0
 62
     0
 10
1.81901
 20
61.1106
 30
0.0
 11
2.61965
 21
61.1106
 31
0.0
  0
LINE
  8
0
 62
     0
 10
2.61965
 20
61.1106
 30
0.0
 11
2.61965
 21
60.1102
 31
0.0
  0
LINE
  8
0
 62
     0
 10
2.61965
 20
60.1102
 30
0.0
 11
16.6192
 21
60.1102
 31
0.0
  0
LINE
  8
0
 62
     0
 10
16.6192
 20
60.1102
 30
0.0
 11
16.6192
 21
61.1106
 31
0.0
  0
LINE
  8
0
 62
     0
 10
16.6192
 20
61.1106
 30
0.0
 11
17.4198
 21
61.1106
 31
0.0
  0
LINE
  8
0
 62
     0
 10
17.4198
 20
61.1106
 30
0.0
 11
17.4198
 21
64.2098
 31
0.0
  0
LINE
  8
0
 62
     0
 10
17.4198
 20
64.2098
 30
0.0
 11
16.6192
 21
64.2098
 31
0.0
  0
LINE
  8
0
 62
     0
 10
16.6192
 20
64.2098
 30
0.0
 11
16.6192
 21
70.0098
 31
0.0
  0
LINE
  8
0
 62
     0
 10
16.6192
 20
70.0098
 30
0.0
 11
17.4198
 21
70.0098
 31
0.0
  0
LINE
  8
0
 62
     0
 10
17.4198
 20
70.0098
 30
0.0
 11
17.4198
 21
73.1104
 31
0.0
  0
LINE
  8
0
 62
     0
 10
17.4198
 20
73.1104
 30
0.0
 11
16.6192
 21
73.1104
 31
0.0
  0
LINE
  8
0
 62
     0
 10
16.6192
 20
73.1104
 30
0.0
 11
16.6192
 21
74.1094
 31
0.0
  0
LINE
  8
0
 62
     0
 10
16.6192
 20
74.1094
 30
0.0
 11
2.61965
 21
74.1094
 31
0.0
  0
LINE
  8
0
 62
     0
 10
250.27
 20
97.9219
 30
0.0
 11
250.27
 21
96.9215
 31
0.0
  0
LINE
  8
0
 62
     0
 10
250.27
 20
96.9215
 30
0.0
 11
249.469
 21
96.9215
 31
0.0
  0
LINE
  8
0
 62
     0
 10
249.469
 20
96.9215
 30
0.0
 11
249.469
 21
93.8223
 31
0.0
  0
LINE
  8
0
 62
     0
 10
249.469
 20
93.8223
 30
0.0
 11
250.27
 21
93.8223
 31
0.0
  0
LINE
  8
0
 62
     0
 10
250.27
 20
93.8223
 30
0.0
 11
250.27
 21
88.0223
 31
0.0
  0
LINE
  8
0
 62
     0
 10
250.27
 20
88.0223
 30
0.0
 11
249.469
 21
88.0223
 31
0.0
  0
LINE
  8
0
 62
     0
 10
249.469
 20
88.0223
 30
0.0
 11
249.469
 21
84.9217
 31
0.0
  0
LINE
  8
0
 62
     0
 10
249.469
 20
84.9217
 30
0.0
 11
250.27
 21
84.9217
 31
0.0
  0
LINE
  8
0
 62
     0
 10
250.27
 20
84.9217
 30
0.0
 11
250.27
 21
83.9227
 31
0.0
  0
LINE
  8
0
 62
     0
 10
250.27
 20
83.9227
 30
0.0
 11
264.269
 21
83.9227
 31
0.0
  0
LINE
  8
0
 62
     0
 10
264.269
 20
83.9227
 30
0.0
 11
264.269
 21
84.9217
 31
0.0
  0
LINE
  8
0
 62
     0
 10
264.269
 20
84.9217
 30
0.0
 11
265.07
 21
84.9217
 31
0.0
  0
LINE
  8
0
 62
     0
 10
265.07
 20
84.9217
 30
0.0
 11
265.07
 21
88.0223
 31
0.0
  0
LINE
  8
0
 62
     0
 10
265.07
 20
88.0223
 30
0.0
 11
264.269
 21
88.0223
 31
0.0
  0
LINE
  8
0
 62
     0
 10
264.269
 20
88.0223
 30
0.0
 11
264.269
 21
93.8223
 31
0.0
  0
LINE
  8
0
 62
     0
 10
264.269
 20
93.8223
 30
0.0
 11
265.07
 21
93.8223
 31
0.0
  0
LINE
  8
0
 62
     0
 10
265.07
 20
93.8223
 30
0.0
 11
265.07
 21
96.9215
 31
0.0
  0
LINE
  8
0
 62
     0
 10
265.07
 20
96.9215
 30
0.0
 11
264.269
 21
96.9215
 31
0.0
  0
LINE
  8
0
 62
     0
 10
264.269
 20
96.9215
 30
0.0
 11
264.269
 21
97.9219
 31
0.0
  0
LINE
  8
0
 62
     0
 10
264.269
 20
97.9219
 30
0.0
 11
250.27
 21
97.9219
 31
0.0
  0
LINE
  8
0
 62
     0
 10
231.22
 20
97.9219
 30
0.0
 11
231.22
 21
96.9215
 31
0.0
  0
LINE
  8
0
 62
     0
 10
231.22
 20
96.9215
 30
0.0
 11
230.419
 21
96.9215
 31
0.0
  0
LINE
  8
0
 62
     0
 10
230.419
 20
96.9215
 30
0.0
 11
230.419
 21
93.8223
 31
0.0
  0
LINE
  8
0
 62
     0
 10
230.419
 20
93.8223
 30
0.0
 11
231.22
 21
93.8223
 31
0.0
  0
LINE
  8
0
 62
     0
 10
231.22
 20
93.8223
 30
0.0
 11
231.22
 21
88.0223
 31
0.0
  0
LINE
  8
0
 62
     0
 10
231.22
 20
88.0223
 30
0.0
 11
230.419
 21
88.0223
 31
0.0
  0
LINE
  8
0
 62
     0
 10
230.419
 20
88.0223
 30
0.0
 11
230.419
 21
84.9217
 31
0.0
  0
LINE
  8
0
 62
     0
 10
230.419
 20
84.9217
 30
0.0
 11
231.22
 21
84.9217
 31
0.0
  0
LINE
  8
0
 62
     0
 10
231.22
 20
84.9217
 30
0.0
 11
231.22
 21
83.9227
 31
0.0
  0
LINE
  8
0
 62
     0
 10
231.22
 20
83.9227
 30
0.0
 11
245.219
 21
83.9227
 31
0.0
  0
LINE
  8
0
 62
     0
 10
245.219
 20
83.9227
 30
0.0
 11
245.219
 21
84.9217
 31
0.0
  0
LINE
  8
0
 62
     0
 10
245.219
 20
84.9217
 30
0.0
 11
246.02
 21
84.9217
 31
0.0
  0
LINE
  8
0
 62
     0
 10
246.02
 20
84.9217
 30
0.0
 11
246.02
 21
88.0223
 31
0.0
  0
LINE
  8
0
 62
     0
 10
246.02
 20
88.0223
 30
0.0
 11
245.219
 21
88.0223
 31
0.0
  0
LINE
  8
0
 62
     0
 10
245.219
 20
88.0223
 30
0.0
 11
245.219
 21
93.8223
 31
0.0
  0
LINE
  8
0
 62
     0
 10
245.219
 20
93.8223
 30
0.0
 11
246.02
 21
93.8223
 31
0.0
  0
LINE
  8
0
 62
     0
 10
246.02
 20
93.8223
 30
0.0
 11
246.02
 21
96.9215
 31
0.0
  0
LINE
  8
0
 62
     0
 10
246.02
 20
96.9215
 30
0.0
 11
245.219
 21
96.9215
 31
0.0
  0
LINE
  8
0
 62
     0
 10
245.219
 20
96.9215
 30
0.0
 11
245.219
 21
97.9219
 31
0.0
  0
LINE
  8
0
 62
     0
 10
245.219
 20
97.9219
 30
0.0
 11
231.22
 21
97.9219
 31
0.0
  0
LINE
  8
0
 62
     0
 10
212.17
 20
97.9219
 30
0.0
 11
212.17
 21
96.9215
 31
0.0
  0
LINE
  8
0
 62
     0
 10
212.17
 20
96.9215
 30
0.0
 11
211.369
 21
96.9215
 31
0.0
  0
LINE
  8
0
 62
     0
 10
211.369
 20
96.9215
 30
0.0
 11
211.369
 21
93.8223
 31
0.0
  0
LINE
  8
0
 62
     0
 10
211.369
 20
93.8223
 30
0.0
 11
212.17
 21
93.8223
 31
0.0
  0
LINE
  8
0
 62
     0
 10
212.17
 20
93.8223
 30
0.0
 11
212.17
 21
88.0223
 31
0.0
  0
LINE
  8
0
 62
     0
 10
212.17
 20
88.0223
 30
0.0
 11
211.369
 21
88.0223
 31
0.0
  0
LINE
  8
0
 62
     0
 10
211.369
 20
88.0223
 30
0.0
 11
211.369
 21
84.9217
 31
0.0
  0
LINE
  8
0
 62
     0
 10
211.369
 20
84.9217
 30
0.0
 11
212.17
 21
84.9217
 31
0.0
  0
LINE
  8
0
 62
     0
 10
212.17
 20
84.9217
 30
0.0
 11
212.17
 21
83.9227
 31
0.0
  0
LINE
  8
0
 62
     0
 10
212.17
 20
83.9227
 30
0.0
 11
226.169
 21
83.9227
 31
0.0
  0
LINE
  8
0
 62
     0
 10
226.169
 20
83.9227
 30
0.0
 11
226.169
 21
84.9217
 31
0.0
  0
LINE
  8
0
 62
     0
 10
226.169
 20
84.9217
 30
0.0
 11
226.97
 21
84.9217
 31
0.0
  0
LINE
  8
0
 62
     0
 10
226.97
 20
84.9217
 30
0.0
 11
226.97
 21
88.0223
 31
0.0
  0
LINE
  8
0
 62
     0
 10
226.97
 20
88.0223
 30
0.0
 11
226.169
 21
88.0223
 31
0.0
  0
LINE
  8
0
 62
     0
 10
226.169
 20
88.0223
 30
0.0
 11
226.169
 21
93.8223
 31
0.0
  0
LINE
  8
0
 62
     0
 10
226.169
 20
93.8223
 30
0.0
 11
226.97
 21
93.8223
 31
0.0
  0
LINE
  8
0
 62
     0
 10
226.97
 20
93.8223
 30
0.0
 11
226.97
 21
96.9215
 31
0.0
  0
LINE
  8
0
 62
     0
 10
226.97
 20
96.9215
 30
0.0
 11
226.169
 21
96.9215
 31
0.0
  0
LINE
  8
0
 62
     0
 10
226.169
 20
96.9215
 30
0.0
 11
226.169
 21
97.9219
 31
0.0
  0
LINE
  8
0
 62
     0
 10
226.169
 20
97.9219
 30
0.0
 11
212.17
 21
97.9219
 31
0.0
  0
LINE
  8
0
 62
     0
 10
193.12
 20
97.9219
 30
0.0
 11
193.12
 21
96.9215
 31
0.0
  0
LINE
  8
0
 62
     0
 10
193.12
 20
96.9215
 30
0.0
 11
192.319
 21
96.9215
 31
0.0
  0
LINE
  8
0
 62
     0
 10
192.319
 20
96.9215
 30
0.0
 11
192.319
 21
93.8223
 31
0.0
  0
LINE
  8
0
 62
     0
 10
192.319
 20
93.8223
 30
0.0
 11
193.12
 21
93.8223
 31
0.0
  0
LINE
  8
0
 62
     0
 10
193.12
 20
93.8223
 30
0.0
 11
193.12
 21
88.0223
 31
0.0
  0
LINE
  8
0
 62
     0
 10
193.12
 20
88.0223
 30
0.0
 11
192.319
 21
88.0223
 31
0.0
  0
LINE
  8
0
 62
     0
 10
192.319
 20
88.0223
 30
0.0
 11
192.319
 21
84.9217
 31
0.0
  0
LINE
  8
0
 62
     0
 10
192.319
 20
84.9217
 30
0.0
 11
193.12
 21
84.9217
 31
0.0
  0
LINE
  8
0
 62
     0
 10
193.12
 20
84.9217
 30
0.0
 11
193.12
 21
83.9227
 31
0.0
  0
LINE
  8
0
 62
     0
 10
193.12
 20
83.9227
 30
0.0
 11
207.119
 21
83.9227
 31
0.0
  0
LINE
  8
0
 62
     0
 10
207.119
 20
83.9227
 30
0.0
 11
207.119
 21
84.9217
 31
0.0
  0
LINE
  8
0
 62
     0
 10
207.119
 20
84.9217
 30
0.0
 11
207.92
 21
84.9217
 31
0.0
  0
LINE
  8
0
 62
     0
 10
207.92
 20
84.9217
 30
0.0
 11
207.92
 21
88.0223
 31
0.0
  0
LINE
  8
0
 62
     0
 10
207.92
 20
88.0223
 30
0.0
 11
207.119
 21
88.0223
 31
0.0
  0
LINE
  8
0
 62
     0
 10
207.119
 20
88.0223
 30
0.0
 11
207.119
 21
93.8223
 31
0.0
  0
LINE
  8
0
 62
     0
 10
207.119
 20
93.8223
 30
0.0
 11
207.92
 21
93.8223
 31
0.0
  0
LINE
  8
0
 62
     0
 10
207.92
 20
93.8223
 30
0.0
 11
207.92
 21
96.9215
 31
0.0
  0
LINE
  8
0
 62
     0
 10
207.92
 20
96.9215
 30
0.0
 11
207.119
 21
96.9215
 31
0.0
  0
LINE
  8
0
 62
     0
 10
207.119
 20
96.9215
 30
0.0
 11
207.119
 21
97.9219
 31
0.0
  0
LINE
  8
0
 62
     0
 10
207.119
 20
97.9219
 30
0.0
 11
193.12
 21
97.9219
 31
0.0
  0
LINE
  8
0
 62
     0
 10
174.07
 20
97.9219
 30
0.0
 11
174.07
 21
96.9215
 31
0.0
  0
LINE
  8
0
 62
     0
 10
174.07
 20
96.9215
 30
0.0
 11
173.269
 21
96.9215
 31
0.0
  0
LINE
  8
0
 62
     0
 10
173.269
 20
96.9215
 30
0.0
 11
173.269
 21
93.8223
 31
0.0
  0
LINE
  8
0
 62
     0
 10
173.269
 20
93.8223
 30
0.0
 11
174.07
 21
93.8223
 31
0.0
  0
LINE
  8
0
 62
     0
 10
174.07
 20
93.8223
 30
0.0
 11
174.07
 21
88.0223
 31
0.0
  0
LINE
  8
0
 62
     0
 10
174.07
 20
88.0223
 30
0.0
 11
173.269
 21
88.0223
 31
0.0
  0
LINE
  8
0
 62
     0
 10
173.269
 20
88.0223
 30
0.0
 11
173.269
 21
84.9217
 31
0.0
  0
LINE
  8
0
 62
     0
 10
173.269
 20
84.9217
 30
0.0
 11
174.07
 21
84.9217
 31
0.0
  0
LINE
  8
0
 62
     0
 10
174.07
 20
84.9217
 30
0.0
 11
174.07
 21
83.9227
 31
0.0
  0
LINE
  8
0
 62
     0
 10
174.07
 20
83.9227
 30
0.0
 11
188.069
 21
83.9227
 31
0.0
  0
LINE
  8
0
 62
     0
 10
188.069
 20
83.9227
 30
0.0
 11
188.069
 21
84.9217
 31
0.0
  0
LINE
  8
0
 62
     0
 10
188.069
 20
84.9217
 30
0.0
 11
188.87
 21
84.9217
 31
0.0
  0
LINE
  8
0
 62
     0
 10
188.87
 20
84.9217
 30
0.0
 11
188.87
 21
88.0223
 31
0.0
  0
LINE
  8
0
 62
     0
 10
188.87
 20
88.0223
 30
0.0
 11
188.069
 21
88.0223
 31
0.0
  0
LINE
  8
0
 62
     0
 10
188.069
 20
88.0223
 30
0.0
 11
188.069
 21
93.8223
 31
0.0
  0
LINE
  8
0
 62
     0
 10
188.069
 20
93.8223
 30
0.0
 11
188.87
 21
93.8223
 31
0.0
  0
LINE
  8
0
 62
     0
 10
188.87
 20
93.8223
 30
0.0
 11
188.87
 21
96.9215
 31
0.0
  0
LINE
  8
0
 62
     0
 10
188.87
 20
96.9215
 30
0.0
 11
188.069
 21
96.9215
 31
0.0
  0
LINE
  8
0
 62
     0
 10
188.069
 20
96.9215
 30
0.0
 11
188.069
 21
97.9219
 31
0.0
  0
LINE
  8
0
 62
     0
 10
188.069
 20
97.9219
 30
0.0
 11
174.07
 21
97.9219
 31
0.0
  0
LINE
  8
0
 62
     0
 10
155.02
 20
97.9219
 30
0.0
 11
155.02
 21
96.9215
 31
0.0
  0
LINE
  8
0
 62
     0
 10
155.02
 20
96.9215
 30
0.0
 11
154.219
 21
96.9215
 31
0.0
  0
LINE
  8
0
 62
     0
 10
154.219
 20
96.9215
 30
0.0
 11
154.219
 21
93.8223
 31
0.0
  0
LINE
  8
0
 62
     0
 10
154.219
 20
93.8223
 30
0.0
 11
155.02
 21
93.8223
 31
0.0
  0
LINE
  8
0
 62
     0
 10
155.02
 20
93.8223
 30
0.0
 11
155.02
 21
88.0223
 31
0.0
  0
LINE
  8
0
 62
     0
 10
155.02
 20
88.0223
 30
0.0
 11
154.219
 21
88.0223
 31
0.0
  0
LINE
  8
0
 62
     0
 10
154.219
 20
88.0223
 30
0.0
 11
154.219
 21
84.9217
 31
0.0
  0
LINE
  8
0
 62
     0
 10
154.219
 20
84.9217
 30
0.0
 11
155.02
 21
84.9217
 31
0.0
  0
LINE
  8
0
 62
     0
 10
155.02
 20
84.9217
 30
0.0
 11
155.02
 21
83.9227
 31
0.0
  0
LINE
  8
0
 62
     0
 10
155.02
 20
83.9227
 30
0.0
 11
169.019
 21
83.9227
 31
0.0
  0
LINE
  8
0
 62
     0
 10
169.019
 20
83.9227
 30
0.0
 11
169.019
 21
84.9217
 31
0.0
  0
LINE
  8
0
 62
     0
 10
169.019
 20
84.9217
 30
0.0
 11
169.82
 21
84.9217
 31
0.0
  0
LINE
  8
0
 62
     0
 10
169.82
 20
84.9217
 30
0.0
 11
169.82
 21
88.0223
 31
0.0
  0
LINE
  8
0
 62
     0
 10
169.82
 20
88.0223
 30
0.0
 11
169.019
 21
88.0223
 31
0.0
  0
LINE
  8
0
 62
     0
 10
169.019
 20
88.0223
 30
0.0
 11
169.019
 21
93.8223
 31
0.0
  0
LINE
  8
0
 62
     0
 10
169.019
 20
93.8223
 30
0.0
 11
169.82
 21
93.8223
 31
0.0
  0
LINE
  8
0
 62
     0
 10
169.82
 20
93.8223
 30
0.0
 11
169.82
 21
96.9215
 31
0.0
  0
LINE
  8
0
 62
     0
 10
169.82
 20
96.9215
 30
0.0
 11
169.019
 21
96.9215
 31
0.0
  0
LINE
  8
0
 62
     0
 10
169.019
 20
96.9215
 30
0.0
 11
169.019
 21
97.9219
 31
0.0
  0
LINE
  8
0
 62
     0
 10
169.019
 20
97.9219
 30
0.0
 11
155.02
 21
97.9219
 31
0.0
  0
LINE
  8
0
 62
     0
 10
135.97
 20
97.9219
 30
0.0
 11
135.97
 21
96.9215
 31
0.0
  0
LINE
  8
0
 62
     0
 10
135.97
 20
96.9215
 30
0.0
 11
135.169
 21
96.9215
 31
0.0
  0
LINE
  8
0
 62
     0
 10
135.169
 20
96.9215
 30
0.0
 11
135.169
 21
93.8223
 31
0.0
  0
LINE
  8
0
 62
     0
 10
135.169
 20
93.8223
 30
0.0
 11
135.97
 21
93.8223
 31
0.0
  0
LINE
  8
0
 62
     0
 10
135.97
 20
93.8223
 30
0.0
 11
135.97
 21
88.0223
 31
0.0
  0
LINE
  8
0
 62
     0
 10
135.97
 20
88.0223
 30
0.0
 11
135.169
 21
88.0223
 31
0.0
  0
LINE
  8
0
 62
     0
 10
135.169
 20
88.0223
 30
0.0
 11
135.169
 21
84.9217
 31
0.0
  0
LINE
  8
0
 62
     0
 10
135.169
 20
84.9217
 30
0.0
 11
135.97
 21
84.9217
 31
0.0
  0
LINE
  8
0
 62
     0
 10
135.97
 20
84.9217
 30
0.0
 11
135.97
 21
83.9227
 31
0.0
  0
LINE
  8
0
 62
     0
 10
135.97
 20
83.9227
 30
0.0
 11
149.969
 21
83.9227
 31
0.0
  0
LINE
  8
0
 62
     0
 10
149.969
 20
83.9227
 30
0.0
 11
149.969
 21
84.9217
 31
0.0
  0
LINE
  8
0
 62
     0
 10
149.969
 20
84.9217
 30
0.0
 11
150.77
 21
84.9217
 31
0.0
  0
LINE
  8
0
 62
     0
 10
150.77
 20
84.9217
 30
0.0
 11
150.77
 21
88.0223
 31
0.0
  0
LINE
  8
0
 62
     0
 10
150.77
 20
88.0223
 30
0.0
 11
149.969
 21
88.0223
 31
0.0
  0
LINE
  8
0
 62
     0
 10
149.969
 20
88.0223
 30
0.0
 11
149.969
 21
93.8223
 31
0.0
  0
LINE
  8
0
 62
     0
 10
149.969
 20
93.8223
 30
0.0
 11
150.77
 21
93.8223
 31
0.0
  0
LINE
  8
0
 62
     0
 10
150.77
 20
93.8223
 30
0.0
 11
150.77
 21
96.9215
 31
0.0
  0
LINE
  8
0
 62
     0
 10
150.77
 20
96.9215
 30
0.0
 11
149.969
 21
96.9215
 31
0.0
  0
LINE
  8
0
 62
     0
 10
149.969
 20
96.9215
 30
0.0
 11
149.969
 21
97.9219
 31
0.0
  0
LINE
  8
0
 62
     0
 10
149.969
 20
97.9219
 30
0.0
 11
135.97
 21
97.9219
 31
0.0
  0
LINE
  8
0
 62
     0
 10
116.918
 20
97.9219
 30
0.0
 11
116.918
 21
96.9215
 31
0.0
  0
LINE
  8
0
 62
     0
 10
116.918
 20
96.9215
 30
0.0
 11
116.119
 21
96.9215
 31
0.0
  0
LINE
  8
0
 62
     0
 10
116.119
 20
96.9215
 30
0.0
 11
116.119
 21
93.8223
 31
0.0
  0
LINE
  8
0
 62
     0
 10
116.119
 20
93.8223
 30
0.0
 11
116.918
 21
93.8223
 31
0.0
  0
LINE
  8
0
 62
     0
 10
116.918
 20
93.8223
 30
0.0
 11
116.918
 21
88.0223
 31
0.0
  0
LINE
  8
0
 62
     0
 10
116.918
 20
88.0223
 30
0.0
 11
116.119
 21
88.0223
 31
0.0
  0
LINE
  8
0
 62
     0
 10
116.119
 20
88.0223
 30
0.0
 11
116.119
 21
84.9217
 31
0.0
  0
LINE
  8
0
 62
     0
 10
116.119
 20
84.9217
 30
0.0
 11
116.918
 21
84.9217
 31
0.0
  0
LINE
  8
0
 62
     0
 10
116.918
 20
84.9217
 30
0.0
 11
116.918
 21
83.9227
 31
0.0
  0
LINE
  8
0
 62
     0
 10
116.918
 20
83.9227
 30
0.0
 11
130.919
 21
83.9227
 31
0.0
  0
LINE
  8
0
 62
     0
 10
130.919
 20
83.9227
 30
0.0
 11
130.919
 21
84.9217
 31
0.0
  0
LINE
  8
0
 62
     0
 10
130.919
 20
84.9217
 30
0.0
 11
131.72
 21
84.9217
 31
0.0
  0
LINE
  8
0
 62
     0
 10
131.72
 20
84.9217
 30
0.0
 11
131.72
 21
88.0223
 31
0.0
  0
LINE
  8
0
 62
     0
 10
131.72
 20
88.0223
 30
0.0
 11
130.919
 21
88.0223
 31
0.0
  0
LINE
  8
0
 62
     0
 10
130.919
 20
88.0223
 30
0.0
 11
130.919
 21
93.8223
 31
0.0
  0
LINE
  8
0
 62
     0
 10
130.919
 20
93.8223
 30
0.0
 11
131.72
 21
93.8223
 31
0.0
  0
LINE
  8
0
 62
     0
 10
131.72
 20
93.8223
 30
0.0
 11
131.72
 21
96.9215
 31
0.0
  0
LINE
  8
0
 62
     0
 10
131.72
 20
96.9215
 30
0.0
 11
130.919
 21
96.9215
 31
0.0
  0
LINE
  8
0
 62
     0
 10
130.919
 20
96.9215
 30
0.0
 11
130.919
 21
97.9219
 31
0.0
  0
LINE
  8
0
 62
     0
 10
130.919
 20
97.9219
 30
0.0
 11
116.918
 21
97.9219
 31
0.0
  0
LINE
  8
0
 62
     0
 10
97.8683
 20
97.9219
 30
0.0
 11
97.8683
 21
96.9215
 31
0.0
  0
LINE
  8
0
 62
     0
 10
97.8683
 20
96.9215
 30
0.0
 11
97.0689
 21
96.9215
 31
0.0
  0
LINE
  8
0
 62
     0
 10
97.0689
 20
96.9215
 30
0.0
 11
97.0689
 21
93.8223
 31
0.0
  0
LINE
  8
0
 62
     0
 10
97.0689
 20
93.8223
 30
0.0
 11
97.8683
 21
93.8223
 31
0.0
  0
LINE
  8
0
 62
     0
 10
97.8683
 20
93.8223
 30
0.0
 11
97.8683
 21
88.0223
 31
0.0
  0
LINE
  8
0
 62
     0
 10
97.8683
 20
88.0223
 30
0.0
 11
97.0689
 21
88.0223
 31
0.0
  0
LINE
  8
0
 62
     0
 10
97.0689
 20
88.0223
 30
0.0
 11
97.0689
 21
84.9217
 31
0.0
  0
LINE
  8
0
 62
     0
 10
97.0689
 20
84.9217
 30
0.0
 11
97.8683
 21
84.9217
 31
0.0
  0
LINE
  8
0
 62
     0
 10
97.8683
 20
84.9217
 30
0.0
 11
97.8683
 21
83.9227
 31
0.0
  0
LINE
  8
0
 62
     0
 10
97.8683
 20
83.9227
 30
0.0
 11
111.869
 21
83.9227
 31
0.0
  0
LINE
  8
0
 62
     0
 10
111.869
 20
83.9227
 30
0.0
 11
111.869
 21
84.9217
 31
0.0
  0
LINE
  8
0
 62
     0
 10
111.869
 20
84.9217
 30
0.0
 11
112.668
 21
84.9217
 31
0.0
  0
LINE
  8
0
 62
     0
 10
112.668
 20
84.9217
 30
0.0
 11
112.668
 21
88.0223
 31
0.0
  0
LINE
  8
0
 62
     0
 10
112.668
 20
88.0223
 30
0.0
 11
111.869
 21
88.0223
 31
0.0
  0
LINE
  8
0
 62
     0
 10
111.869
 20
88.0223
 30
0.0
 11
111.869
 21
93.8223
 31
0.0
  0
LINE
  8
0
 62
     0
 10
111.869
 20
93.8223
 30
0.0
 11
112.668
 21
93.8223
 31
0.0
  0
LINE
  8
0
 62
     0
 10
112.668
 20
93.8223
 30
0.0
 11
112.668
 21
96.9215
 31
0.0
  0
LINE
  8
0
 62
     0
 10
112.668
 20
96.9215
 30
0.0
 11
111.869
 21
96.9215
 31
0.0
  0
LINE
  8
0
 62
     0
 10
111.869
 20
96.9215
 30
0.0
 11
111.869
 21
97.9219
 31
0.0
  0
LINE
  8
0
 62
     0
 10
111.869
 20
97.9219
 30
0.0
 11
97.8683
 21
97.9219
 31
0.0
  0
LINE
  8
0
 62
     0
 10
78.8197
 20
97.9219
 30
0.0
 11
78.8197
 21
96.9215
 31
0.0
  0
LINE
  8
0
 62
     0
 10
78.8197
 20
96.9215
 30
0.0
 11
78.0189
 21
96.9215
 31
0.0
  0
LINE
  8
0
 62
     0
 10
78.0189
 20
96.9215
 30
0.0
 11
78.0189
 21
93.8223
 31
0.0
  0
LINE
  8
0
 62
     0
 10
78.0189
 20
93.8223
 30
0.0
 11
78.8197
 21
93.8223
 31
0.0
  0
LINE
  8
0
 62
     0
 10
78.8197
 20
93.8223
 30
0.0
 11
78.8197
 21
88.0223
 31
0.0
  0
LINE
  8
0
 62
     0
 10
78.8197
 20
88.0223
 30
0.0
 11
78.0189
 21
88.0223
 31
0.0
  0
LINE
  8
0
 62
     0
 10
78.0189
 20
88.0223
 30
0.0
 11
78.0189
 21
84.9217
 31
0.0
  0
LINE
  8
0
 62
     0
 10
78.0189
 20
84.9217
 30
0.0
 11
78.8197
 21
84.9217
 31
0.0
  0
LINE
  8
0
 62
     0
 10
78.8197
 20
84.9217
 30
0.0
 11
78.8197
 21
83.9227
 31
0.0
  0
LINE
  8
0
 62
     0
 10
78.8197
 20
83.9227
 30
0.0
 11
92.819
 21
83.9227
 31
0.0
  0
LINE
  8
0
 62
     0
 10
92.819
 20
83.9227
 30
0.0
 11
92.819
 21
84.9217
 31
0.0
  0
LINE
  8
0
 62
     0
 10
92.819
 20
84.9217
 30
0.0
 11
93.6184
 21
84.9217
 31
0.0
  0
LINE
  8
0
 62
     0
 10
93.6184
 20
84.9217
 30
0.0
 11
93.6184
 21
88.0223
 31
0.0
  0
LINE
  8
0
 62
     0
 10
93.6184
 20
88.0223
 30
0.0
 11
92.819
 21
88.0223
 31
0.0
  0
LINE
  8
0
 62
     0
 10
92.819
 20
88.0223
 30
0.0
 11
92.819
 21
93.8223
 31
0.0
  0
LINE
  8
0
 62
     0
 10
92.819
 20
93.8223
 30
0.0
 11
93.6184
 21
93.8223
 31
0.0
  0
LINE
  8
0
 62
     0
 10
93.6184
 20
93.8223
 30
0.0
 11
93.6184
 21
96.9215
 31
0.0
  0
LINE
  8
0
 62
     0
 10
93.6184
 20
96.9215
 30
0.0
 11
92.819
 21
96.9215
 31
0.0
  0
LINE
  8
0
 62
     0
 10
92.819
 20
96.9215
 30
0.0
 11
92.819
 21
97.9219
 31
0.0
  0
LINE
  8
0
 62
     0
 10
92.819
 20
97.9219
 30
0.0
 11
78.8197
 21
97.9219
 31
0.0
  0
LINE
  8
0
 62
     0
 10
59.7697
 20
97.9219
 30
0.0
 11
59.7697
 21
96.9215
 31
0.0
  0
LINE
  8
0
 62
     0
 10
59.7697
 20
96.9215
 30
0.0
 11
58.9689
 21
96.9215
 31
0.0
  0
LINE
  8
0
 62
     0
 10
58.9689
 20
96.9215
 30
0.0
 11
58.9689
 21
93.8223
 31
0.0
  0
LINE
  8
0
 62
     0
 10
58.9689
 20
93.8223
 30
0.0
 11
59.7697
 21
93.8223
 31
0.0
  0
LINE
  8
0
 62
     0
 10
59.7697
 20
93.8223
 30
0.0
 11
59.7697
 21
88.0223
 31
0.0
  0
LINE
  8
0
 62
     0
 10
59.7697
 20
88.0223
 30
0.0
 11
58.9689
 21
88.0223
 31
0.0
  0
LINE
  8
0
 62
     0
 10
58.9689
 20
88.0223
 30
0.0
 11
58.9689
 21
84.9217
 31
0.0
  0
LINE
  8
0
 62
     0
 10
58.9689
 20
84.9217
 30
0.0
 11
59.7697
 21
84.9217
 31
0.0
  0
LINE
  8
0
 62
     0
 10
59.7697
 20
84.9217
 30
0.0
 11
59.7697
 21
83.9227
 31
0.0
  0
LINE
  8
0
 62
     0
 10
59.7697
 20
83.9227
 30
0.0
 11
73.769
 21
83.9227
 31
0.0
  0
LINE
  8
0
 62
     0
 10
73.769
 20
83.9227
 30
0.0
 11
73.769
 21
84.9217
 31
0.0
  0
LINE
  8
0
 62
     0
 10
73.769
 20
84.9217
 30
0.0
 11
74.5698
 21
84.9217
 31
0.0
  0
LINE
  8
0
 62
     0
 10
74.5698
 20
84.9217
 30
0.0
 11
74.5698
 21
88.0223
 31
0.0
  0
LINE
  8
0
 62
     0
 10
74.5698
 20
88.0223
 30
0.0
 11
73.769
 21
88.0223
 31
0.0
  0
LINE
  8
0
 62
     0
 10
73.769
 20
88.0223
 30
0.0
 11
73.769
 21
93.8223
 31
0.0
  0
LINE
  8
0
 62
     0
 10
73.769
 20
93.8223
 30
0.0
 11
74.5698
 21
93.8223
 31
0.0
  0
LINE
  8
0
 62
     0
 10
74.5698
 20
93.8223
 30
0.0
 11
74.5698
 21
96.9215
 31
0.0
  0
LINE
  8
0
 62
     0
 10
74.5698
 20
96.9215
 30
0.0
 11
73.769
 21
96.9215
 31
0.0
  0
LINE
  8
0
 62
     0
 10
73.769
 20
96.9215
 30
0.0
 11
73.769
 21
97.9219
 31
0.0
  0
LINE
  8
0
 62
     0
 10
73.769
 20
97.9219
 30
0.0
 11
59.7697
 21
97.9219
 31
0.0
  0
LINE
  8
0
 62
     0
 10
40.7197
 20
97.9219
 30
0.0
 11
40.7197
 21
96.9215
 31
0.0
  0
LINE
  8
0
 62
     0
 10
40.7197
 20
96.9215
 30
0.0
 11
39.9189
 21
96.9215
 31
0.0
  0
LINE
  8
0
 62
     0
 10
39.9189
 20
96.9215
 30
0.0
 11
39.9189
 21
93.8223
 31
0.0
  0
LINE
  8
0
 62
     0
 10
39.9189
 20
93.8223
 30
0.0
 11
40.7197
 21
93.8223
 31
0.0
  0
LINE
  8
0
 62
     0
 10
40.7197
 20
93.8223
 30
0.0
 11
40.7197
 21
88.0223
 31
0.0
  0
LINE
  8
0
 62
     0
 10
40.7197
 20
88.0223
 30
0.0
 11
39.9189
 21
88.0223
 31
0.0
  0
LINE
  8
0
 62
     0
 10
39.9189
 20
88.0223
 30
0.0
 11
39.9189
 21
84.9217
 31
0.0
  0
LINE
  8
0
 62
     0
 10
39.9189
 20
84.9217
 30
0.0
 11
40.7197
 21
84.9217
 31
0.0
  0
LINE
  8
0
 62
     0
 10
40.7197
 20
84.9217
 30
0.0
 11
40.7197
 21
83.9227
 31
0.0
  0
LINE
  8
0
 62
     0
 10
40.7197
 20
83.9227
 30
0.0
 11
54.719
 21
83.9227
 31
0.0
  0
LINE
  8
0
 62
     0
 10
54.719
 20
83.9227
 30
0.0
 11
54.719
 21
84.9217
 31
0.0
  0
LINE
  8
0
 62
     0
 10
54.719
 20
84.9217
 30
0.0
 11
55.5198
 21
84.9217
 31
0.0
  0
LINE
  8
0
 62
     0
 10
55.5198
 20
84.9217
 30
0.0
 11
55.5198
 21
88.0223
 31
0.0
  0
LINE
  8
0
 62
     0
 10
55.5198
 20
88.0223
 30
0.0
 11
54.719
 21
88.0223
 31
0.0
  0
LINE
  8
0
 62
     0
 10
54.719
 20
88.0223
 30
0.0
 11
54.719
 21
93.8223
 31
0.0
  0
LINE
  8
0
 62
     0
 10
54.719
 20
93.8223
 30
0.0
 11
55.5198
 21
93.8223
 31
0.0
  0
LINE
  8
0
 62
     0
 10
55.5198
 20
93.8223
 30
0.0
 11
55.5198
 21
96.9215
 31
0.0
  0
LINE
  8
0
 62
     0
 10
55.5198
 20
96.9215
 30
0.0
 11
54.719
 21
96.9215
 31
0.0
  0
LINE
  8
0
 62
     0
 10
54.719
 20
96.9215
 30
0.0
 11
54.719
 21
97.9219
 31
0.0
  0
LINE
  8
0
 62
     0
 10
54.719
 20
97.9219
 30
0.0
 11
40.7197
 21
97.9219
 31
0.0
  0
LINE
  8
0
 62
     0
 10
21.6697
 20
97.9219
 30
0.0
 11
21.6697
 21
96.9215
 31
0.0
  0
LINE
  8
0
 62
     0
 10
21.6697
 20
96.9215
 30
0.0
 11
20.869
 21
96.9215
 31
0.0
  0
LINE
  8
0
 62
     0
 10
20.869
 20
96.9215
 30
0.0
 11
20.869
 21
93.8223
 31
0.0
  0
LINE
  8
0
 62
     0
 10
20.869
 20
93.8223
 30
0.0
 11
21.6697
 21
93.8223
 31
0.0
  0
LINE
  8
0
 62
     0
 10
21.6697
 20
93.8223
 30
0.0
 11
21.6697
 21
88.0223
 31
0.0
  0
LINE
  8
0
 62
     0
 10
21.6697
 20
88.0223
 30
0.0
 11
20.869
 21
88.0223
 31
0.0
  0
LINE
  8
0
 62
     0
 10
20.869
 20
88.0223
 30
0.0
 11
20.869
 21
84.9217
 31
0.0
  0
LINE
  8
0
 62
     0
 10
20.869
 20
84.9217
 30
0.0
 11
21.6697
 21
84.9217
 31
0.0
  0
LINE
  8
0
 62
     0
 10
21.6697
 20
84.9217
 30
0.0
 11
21.6697
 21
83.9227
 31
0.0
  0
LINE
  8
0
 62
     0
 10
21.6697
 20
83.9227
 30
0.0
 11
35.669
 21
83.9227
 31
0.0
  0
LINE
  8
0
 62
     0
 10
35.669
 20
83.9227
 30
0.0
 11
35.669
 21
84.9217
 31
0.0
  0
LINE
  8
0
 62
     0
 10
35.669
 20
84.9217
 30
0.0
 11
36.4698
 21
84.9217
 31
0.0
  0
LINE
  8
0
 62
     0
 10
36.4698
 20
84.9217
 30
0.0
 11
36.4698
 21
88.0223
 31
0.0
  0
LINE
  8
0
 62
     0
 10
36.4698
 20
88.0223
 30
0.0
 11
35.669
 21
88.0223
 31
0.0
  0
LINE
  8
0
 62
     0
 10
35.669
 20
88.0223
 30
0.0
 11
35.669
 21
93.8223
 31
0.0
  0
LINE
  8
0
 62
     0
 10
35.669
 20
93.8223
 30
0.0
 11
36.4698
 21
93.8223
 31
0.0
  0
LINE
  8
0
 62
     0
 10
36.4698
 20
93.8223
 30
0.0
 11
36.4698
 21
96.9215
 31
0.0
  0
LINE
  8
0
 62
     0
 10
36.4698
 20
96.9215
 30
0.0
 11
35.669
 21
96.9215
 31
0.0
  0
LINE
  8
0
 62
     0
 10
35.669
 20
96.9215
 30
0.0
 11
35.669
 21
97.9219
 31
0.0
  0
LINE
  8
0
 62
     0
 10
35.669
 20
97.9219
 30
0.0
 11
21.6697
 21
97.9219
 31
0.0
  0
LINE
  8
0
 62
     0
 10
2.61965
 20
97.9219
 30
0.0
 11
2.61965
 21
96.9215
 31
0.0
  0
LINE
  8
0
 62
     0
 10
2.61965
 20
96.9215
 30
0.0
 11
1.81901
 21
96.9215
 31
0.0
  0
LINE
  8
0
 62
     0
 10
1.81901
 20
96.9215
 30
0.0
 11
1.81901
 21
93.8223
 31
0.0
  0
LINE
  8
0
 62
     0
 10
1.81901
 20
93.8223
 30
0.0
 11
2.61965
 21
93.8223
 31
0.0
  0
LINE
  8
0
 62
     0
 10
2.61965
 20
93.8223
 30
0.0
 11
2.61965
 21
88.0223
 31
0.0
  0
LINE
  8
0
 62
     0
 10
2.61965
 20
88.0223
 30
0.0
 11
1.81901
 21
88.0223
 31
0.0
  0
LINE
  8
0
 62
     0
 10
1.81901
 20
88.0223
 30
0.0
 11
1.81901
 21
84.9217
 31
0.0
  0
LINE
  8
0
 62
     0
 10
1.81901
 20
84.9217
 30
0.0
 11
2.61965
 21
84.9217
 31
0.0
  0
LINE
  8
0
 62
     0
 10
2.61965
 20
84.9217
 30
0.0
 11
2.61965
 21
83.9227
 31
0.0
  0
LINE
  8
0
 62
     0
 10
2.61965
 20
83.9227
 30
0.0
 11
16.6192
 21
83.9227
 31
0.0
  0
LINE
  8
0
 62
     0
 10
16.6192
 20
83.9227
 30
0.0
 11
16.6192
 21
84.9217
 31
0.0
  0
LINE
  8
0
 62
     0
 10
16.6192
 20
84.9217
 30
0.0
 11
17.4198
 21
84.9217
 31
0.0
  0
LINE
  8
0
 62
     0
 10
17.4198
 20
84.9217
 30
0.0
 11
17.4198
 21
88.0223
 31
0.0
  0
LINE
  8
0
 62
     0
 10
17.4198
 20
88.0223
 30
0.0
 11
16.6192
 21
88.0223
 31
0.0
  0
LINE
  8
0
 62
     0
 10
16.6192
 20
88.0223
 30
0.0
 11
16.6192
 21
93.8223
 31
0.0
  0
LINE
  8
0
 62
     0
 10
16.6192
 20
93.8223
 30
0.0
 11
17.4198
 21
93.8223
 31
0.0
  0
LINE
  8
0
 62
     0
 10
17.4198
 20
93.8223
 30
0.0
 11
17.4198
 21
96.9215
 31
0.0
  0
LINE
  8
0
 62
     0
 10
17.4198
 20
96.9215
 30
0.0
 11
16.6192
 21
96.9215
 31
0.0
  0
LINE
  8
0
 62
     0
 10
16.6192
 20
96.9215
 30
0.0
 11
16.6192
 21
97.9219
 31
0.0
  0
LINE
  8
0
 62
     0
 10
16.6192
 20
97.9219
 30
0.0
 11
2.61965
 21
97.9219
 31
0.0
  0
ENDSEC
  0
EOF
